<?xml version="1.0" encoding="UTF-8"?>
<svg xmlns="http://www.w3.org/2000/svg" xmlns:xlink="http://www.w3.org/1999/xlink" version="1.2" >
<font id="Cansu Light">
<font-face  font-family="Cansu" units-per-em="1024" ascent="975" descent="-300" font-style="normal" font-weight="300" font-stretch="normal" cap-height="1000" x-height="488" underline-position="0" underline-thickness="0" />
<missing-glyph  horiz-adv-x="100" d="" />
<glyph glyph-name="CR" unicode="&#xd;" horiz-adv-x="256" d="" />
<glyph glyph-name="space" unicode="&#x20;" horiz-adv-x="250" d="" />
<glyph glyph-name="uni000D" horiz-adv-x="256" d="" />
<glyph glyph-name="exclam" unicode="&#x21;" horiz-adv-x="149" d="M45 750 L45 440 L67 193 L82 193 L104 440 L104 750 L45 750 Z M44 0 L104 0 L104 60 L44 60 L44 0 Z " />
<glyph glyph-name="quotedbl" unicode="&#x22;" horiz-adv-x="270" d="M77 750 L77 695 L93 650 L117 650 L133 695 L133 750 L77 750 Z M167 750 L167 695 L183 650 L207 650 L223 695 L223 750 L167 750 Z " />
<glyph glyph-name="numbersign" unicode="&#x23;" horiz-adv-x="683" d="M614 210 L620 250 L470 250 L502 500 L658 500 L663 540 L507 540 L534 750 L484 750 L457 540 L283 540 L310 750 L260 750 L233 540 L68 540 L63 500 L228 500 L196 250 L25 250 L19 210 L191 210 L164 0 L214 0 L241 210 L415 210 L388 0 L438 0 L465 210 L614 210 Z M246 250 L278 500 L452 500 L420 250 L246 250 Z " />
<glyph glyph-name="dollar" unicode="&#x24;" horiz-adv-x="521" d="M179 52 C115 72 60 116 27 188 L28 111 C63 58 113 17 180 0 L180 -75 C182 -74 184 -74 187 -73 C190 -71 194 -70 199 -70 C204 -70 206 -72 207 -75 L207 -6 C220 -9 236 -10 255 -10 C272 -10 289 -9 305 -7 L305 -75 L332 -75 L332 -1 C433 24 486 101 486 209 C486 294 434 359 330 396 L329 685 C364 665 400 635 439 592 L439 653 C403 693 364 723 328 740 L328 825 L301 825 L301 751 C284 757 268 760 252 760 C235 760 219 758 203 755 L203 825 L176 825 L176 747 C101 718 56 646 56 547 C56 470 98 411 178 378 L179 52 L179 52 Z M255 41 C238 41 222 42 206 45 L205 368 C218 364 231 361 246 358 C267 354 286 349 303 343 L304 46 C289 43 274 41 255 41 L255 41 Z M204 700 C219 705 235 708 252 708 C267 708 283 704 302 697 L303 404 C290 408 276 411 261 414 C240 418 221 423 205 430 L204 700 L204 700 Z M330 333 C397 304 430 260 430 208 C430 132 398 77 331 53 L330 333 Z M113 554 C113 614 137 660 177 687 L178 444 C135 470 113 507 113 554 L113 554 Z " />
<glyph glyph-name="percent" unicode="&#x25;" horiz-adv-x="777" d="M149 0 L167 0 L632 750 L614 750 L149 0 Z M521 144 C521 52 564 -10 632 -10 C701 -10 747 52 747 144 C747 232 701 290 632 290 C564 290 521 232 521 144 L521 144 Z M549 144 C549 216 581 263 632 263 C684 263 719 216 719 144 C719 68 684 17 632 17 C581 17 549 68 549 144 L549 144 Z M35 610 C35 519 83 460 158 460 C231 460 280 519 280 610 C280 701 231 760 158 760 C83 760 35 701 35 610 L35 610 Z M64 610 C64 685 102 733 158 733 C214 733 252 685 252 610 C252 535 214 487 158 487 C102 487 64 535 64 610 L64 610 Z " />
<glyph glyph-name="ampersand" unicode="&#x26;" horiz-adv-x="703" d="M52 184 C52 61 149 -20 293 -20 C365 -20 424 5 471 52 C510 13 547 -10 588 -10 C603 -10 624 -5 643 2 L636 46 C623 41 609 38 592 38 C561 38 533 57 501 90 C546 154 571 241 568 348 L520 359 C521 264 502 186 467 129 C460 137 452 147 445 156 C368 253 309 327 278 366 C383 425 453 483 453 539 C453 634 392 695 297 695 C197 695 130 629 130 529 C130 478 162 415 210 371 C116 320 52 244 52 184 L52 184 Z M300 31 C182 31 104 95 104 191 C104 238 156 297 236 341 C263 306 317 238 389 147 C405 126 421 108 436 89 C400 52 355 31 300 31 L300 31 Z M177 533 C177 605 225 652 297 652 C365 652 410 607 410 539 C410 504 348 446 255 395 C208 435 177 490 177 533 L177 533 Z " />
<glyph glyph-name="quotesingle" unicode="&#x27;" horiz-adv-x="180" d="M77 750 L77 695 L93 650 L117 650 L133 695 L133 750 L77 750 Z " />
<glyph glyph-name="parenleft" unicode="&#x28;" horiz-adv-x="348" d="M311 795 C178 683 111 530 111 335 C111 148 178 -3 311 -115 L328 -96 C205 7 143 152 143 335 C143 526 205 673 328 776 L311 795 Z " />
<glyph glyph-name="parenright" unicode="&#x29;" horiz-adv-x="331" d="M368 -115 C501 -3 568 150 568 345 C568 532 501 683 368 795 L351 776 C474 673 536 528 536 345 C536 154 474 7 351 -96 L368 -115 Z " />
<glyph glyph-name="asterisk" unicode="&#x2a;" horiz-adv-x="352" d="M17 629 L155 593 L65 483 L99 458 L176 577 L253 458 L287 483 L197 593 L335 629 L322 669 L189 618 L197 760 L155 760 L163 618 L30 669 L17 629 Z " />
<glyph glyph-name="plus" unicode="&#x2b;" horiz-adv-x="590" d="M565 245 L565 275 L311 275 L311 520 L279 520 L279 275 L25 275 L25 245 L279 245 L279 0 L311 0 L311 245 L565 245 Z " />
<glyph glyph-name="comma" unicode="&#x2c;" horiz-adv-x="160" d="M50 -86 C103 -86 110 -43 110 0 L110 60 L50 60 L50 0 L77 0 C77 -43 69 -60 50 -60 L50 -86 Z " />
<glyph glyph-name="hyphen" unicode="&#x2d;" horiz-adv-x="365" d="M50 242 L315 242 L315 284 L50 284 L50 242 Z " />
<glyph glyph-name="period" unicode="&#x2e;" horiz-adv-x="160" d="M50 0 L110 0 L110 60 L50 60 L50 0 Z " />
<glyph glyph-name="slash" unicode="&#x2f;" horiz-adv-x="264" d="M0 0 L22 0 L264 750 L242 750 L0 0 Z " />
<glyph glyph-name="zero" unicode="0" horiz-adv-x="700" d="M71 375 C71 119 167 -10 358 -10 C549 -10 645 119 645 375 C645 618 539 760 358 760 C177 760 71 618 71 375 L71 375 Z M128 375 C128 587 213 712 358 712 C503 712 588 587 588 375 C588 151 511 38 358 38 C205 38 128 151 128 375 L128 375 Z " />
<glyph glyph-name="one" unicode="1" horiz-adv-x="376" d="M50 604 L50 545 L220 682 L220 0 L276 0 L276 750 L233 750 L50 604 Z " />
<glyph glyph-name="two" unicode="2" horiz-adv-x="580" d="M318 337 C134 204 63 127 63 0 L545 0 L545 54 L132 54 C153 139 228 207 380 319 C470 383 530 466 530 521 C530 665 420 760 299 760 C192 760 134 706 97 648 L97 591 C158 660 190 707 298 707 C403 707 473 625 473 524 C473 479 411 405 318 337 L318 337 Z " />
<glyph glyph-name="three" unicode="3" horiz-adv-x="593" d="M79 96 C130 21 174 -10 294 -10 C434 -10 548 78 548 209 C548 305 472 384 354 408 C454 427 520 485 520 564 C520 682 454 760 291 760 C224 760 146 720 98 669 L98 609 C157 672 221 712 289 712 C410 712 468 652 468 560 C468 480 396 427 289 427 L209 427 L209 384 L269 384 C400 384 488 315 488 212 C488 110 406 42 294 42 C174 42 133 84 79 173 L79 96 L79 96 Z " />
<glyph glyph-name="four" unicode="4" horiz-adv-x="595" d="M575 276 L575 328 L452 328 L452 583 L451 750 L408 750 L25 321 L25 276 L396 276 L396 0 L451 0 L451 276 L575 276 Z M403 683 L396 583 L396 328 L87 328 L403 683 Z " />
<glyph glyph-name="five" unicode="5" horiz-adv-x="599" d="M80 96 C119 38 170 -10 302 -10 C457 -10 559 88 559 235 C559 367 470 455 336 455 C293 455 232 437 176 400 L184 685 L540 692 L544 750 L127 750 L119 353 L175 353 C202 382 256 402 312 402 C445 401 499 335 499 235 C499 118 420 40 302 40 C198 40 135 84 80 171 L80 96 Z " />
<glyph glyph-name="six" unicode="6" horiz-adv-x="600" d="M389 760 C182 760 75 604 75 372 C75 119 163 -10 338 -10 C483 -10 580 93 580 245 C580 389 490 484 356 484 C263 484 173 425 133 340 C132 355 132 368 132 383 C132 582 219 715 389 715 C454 715 518 679 550 626 L550 683 C523 730 458 760 389 760 L389 760 Z M138 278 C183 373 264 436 345 436 C450 436 520 361 520 245 C520 121 447 38 338 38 C224 38 157 118 138 278 L138 278 Z " />
<glyph glyph-name="seven" unicode="7" horiz-adv-x="490" d="M430 696 C249 520 177 324 177 0 L239 0 C239 335 306 527 480 696 L480 750 L30 750 L30 696 L430 696 Z " />
<glyph glyph-name="eight" unicode="8" horiz-adv-x="629" d="M239 401 C139 378 76 317 76 204 C76 76 153 -10 325 -10 C474 -10 574 56 574 204 C574 304 523 377 410 401 C494 421 545 472 545 563 C545 682 470 760 325 760 C192 760 103 694 103 563 C103 482 146 422 239 401 L239 401 Z M136 208 C136 323 212 374 325 374 C456 374 514 308 514 209 C514 92 438 38 325 38 C194 38 136 105 136 208 L136 208 Z M325 426 C208 426 155 479 155 559 C155 660 222 712 325 712 C437 712 493 651 493 559 C493 467 426 426 325 426 L325 426 Z " />
<glyph glyph-name="nine" unicode="9" horiz-adv-x="611" d="M274 266 C367 266 456 324 496 411 C497 396 497 382 497 367 C497 172 411 44 245 44 C169 44 97 81 64 137 L64 73 C95 22 165 -10 245 -10 C450 -10 555 146 555 378 C555 631 467 760 292 760 C147 760 50 657 50 505 C50 361 140 266 274 266 L274 266 Z M110 505 C110 629 183 712 292 712 C405 712 472 632 491 472 C448 379 362 314 283 314 C179 314 110 391 110 505 L110 505 Z " />
<glyph glyph-name="colon" unicode="&#x3a;" horiz-adv-x="160" d="M50 0 L110 0 L110 60 L50 60 L50 0 Z M50 460 L110 460 L110 520 L50 520 L50 460 Z " />
<glyph glyph-name="semicolon" unicode="&#x3b;" horiz-adv-x="160" d="M50 -86 C93 -86 110 -63 110 0 L110 60 L50 60 L50 0 L77 0 C77 -43 69 -60 50 -60 L50 -86 Z M110 460 L110 520 L50 520 L50 460 L110 460 Z " />
<glyph glyph-name="less" unicode="&#x3c;" horiz-adv-x="555" d="M495 40 L495 81 L86 260 L495 439 L495 480 L45 278 L45 242 L495 40 Z " />
<glyph glyph-name="equal" unicode="&#x3d;" horiz-adv-x="604" d="M39 380 L39 350 L554 350 L554 380 L39 380 Z M39 180 L39 150 L554 150 L554 180 L39 180 Z " />
<glyph glyph-name="greater" unicode="&#x3e;" horiz-adv-x="555" d="M469 260 L60 81 L60 40 L510 242 L510 278 L60 480 L60 439 L469 260 Z " />
<glyph glyph-name="question" unicode="&#x3f;" horiz-adv-x="536" d="M43 593 C87 664 163 716 278 716 C372 716 434 655 434 563 C434 476 414 434 361 409 C270 366 251 331 251 193 L299 193 C299 309 316 339 396 376 C461 407 486 459 486 563 C486 681 403 760 278 760 C162 760 78 713 43 649 L43 593 Z M245 0 L305 0 L305 60 L245 60 L245 0 Z " />
<glyph glyph-name="at" unicode="&#x40;" horiz-adv-x="1172" d="M596 806 C273 806 57 592 57 269 C57 -54 273 -268 597 -268 C737 -268 904 -219 1008 -145 L989 -119 C890 -188 736 -233 597 -233 C295 -233 94 -32 94 269 C94 570 295 771 596 771 C886 771 1080 605 1080 357 C1080 157 1014 23 915 23 C815 23 758 97 771 208 L806 499 L761 499 L746 374 C726 459 670 510 587 510 C452 510 349 413 333 269 C314 113 394 9 533 9 C621 9 692 55 727 130 C743 45 806 -8 899 -8 C1031 -8 1117 137 1117 357 C1117 625 909 806 596 806 L596 806 Z M538 54 C429 54 367 140 383 269 C396 386 478 464 582 464 C685 464 745 381 732 257 L726 208 C715 116 639 54 538 54 L538 54 Z " />
<glyph glyph-name="A" unicode="A" horiz-adv-x="724" d="M28 0 L91 0 L180 216 L565 216 L654 0 L714 0 L403 750 L342 750 L28 0 Z M373 681 L547 260 L198 260 L373 681 Z " />
<glyph glyph-name="B" unicode="B" horiz-adv-x="704" d="M394 0 C592 0 669 64 669 230 C669 334 590 405 466 418 C562 438 619 486 619 550 C619 694 542 750 344 750 L105 750 L105 0 L394 0 L394 0 Z M161 387 L394 387 C524 387 610 323 610 230 C610 98 545 46 377 46 L161 45 L161 387 Z M161 705 L346 705 C502 705 562 661 562 549 C562 456 435 433 363 433 L161 431 L161 705 Z " />
<glyph glyph-name="C" unicode="C" horiz-adv-x="710" d="M690 173 C655 92 541 38 411 38 C243 38 131 193 131 375 C131 557 243 712 411 712 C531 712 645 658 690 578 L690 643 C650 713 537 760 411 760 C207 760 71 583 71 375 C71 167 207 -10 411 -10 C548 -10 658 37 690 106 L690 173 Z " />
<glyph glyph-name="D" unicode="D" horiz-adv-x="764" d="M105 0 L349 0 C593 0 709 122 709 375 C709 624 578 750 319 750 L105 750 L105 0 Z M161 705 L321 705 C544 705 649 586 649 375 C649 150 552 45 345 45 L161 45 L161 705 Z " />
<glyph glyph-name="E" unicode="E" horiz-adv-x="586" d="M105 0 L536 0 L536 48 L161 48 L161 364 L501 364 L501 410 L161 410 L161 702 L521 702 L521 750 L105 750 L105 0 Z " />
<glyph glyph-name="F" unicode="F" horiz-adv-x="551" d="M105 0 L161 0 L161 364 L491 364 L491 410 L161 410 L161 702 L521 702 L521 750 L105 750 L105 0 Z " />
<glyph glyph-name="G" unicode="G" horiz-adv-x="774" d="M428 760 C214 760 71 607 71 375 C71 143 214 -10 428 -10 C541 -10 650 34 729 99 L729 432 L373 432 L373 384 L673 384 L673 127 C609 74 520 38 428 38 C250 38 131 173 131 375 C131 578 250 712 428 712 C518 712 615 647 671 550 L714 586 C655 690 539 760 428 760 L428 760 Z " />
<glyph glyph-name="H" unicode="H" horiz-adv-x="706" d="M105 750 L105 0 L161 0 L161 371 L565 371 L565 0 L621 0 L621 750 L565 750 L565 419 L161 419 L161 750 L105 750 Z " />
<glyph glyph-name="I" unicode="I" horiz-adv-x="227" d="M142 0 L142 750 L86 750 L86 0 L142 0 Z " />
<glyph glyph-name="J" unicode="J" horiz-adv-x="489" d="M79 73 L80 42 C112 2 139 -10 202 -10 C334 -10 404 81 404 220 L404 750 L348 750 L348 220 C348 113 298 44 202 44 C138 44 119 56 80 95 L79 89 L79 73 Z " />
<glyph glyph-name="K" unicode="K" horiz-adv-x="608" d="M161 0 L161 272 L162 272 L286 423 L531 0 L598 0 L324 470 L555 750 L483 750 L161 348 L161 750 L105 750 L105 0 L161 0 Z " />
<glyph glyph-name="L" unicode="L" horiz-adv-x="497" d="M86 750 L86 0 L467 0 L467 48 L142 48 L142 750 L86 750 Z " />
<glyph glyph-name="M" unicode="M" horiz-adv-x="835" d="M161 0 L161 688 L404 0 L454 0 L697 696 L697 0 L750 0 L750 750 L662 750 L428 75 L191 750 L105 750 L105 0 L161 0 Z " />
<glyph glyph-name="N" unicode="N" horiz-adv-x="674" d="M104 0 L163 0 L163 641 L510 0 L589 0 L589 750 L530 750 L530 78 L166 750 L104 750 L104 0 Z " />
<glyph glyph-name="O" unicode="O" horiz-adv-x="814" d="M76 375 C76 143 213 -10 418 -10 C623 -10 759 143 759 375 C759 594 613 760 418 760 C223 760 76 594 76 375 L76 375 Z M136 375 C136 567 257 712 418 712 C578 712 699 567 699 375 C699 173 587 38 418 38 C250 38 136 173 136 375 L136 375 Z " />
<glyph glyph-name="P" unicode="P" horiz-adv-x="624" d="M105 0 L161 0 L161 315 L398 315 C525 315 589 385 589 525 C589 675 525 750 398 750 L105 750 L105 0 Z M161 360 L161 705 L396 705 C487 705 533 645 533 525 C533 415 489 360 400 360 L161 360 Z " />
<glyph glyph-name="Q" unicode="Q" horiz-adv-x="814" d="M418 760 C223 760 76 594 76 375 C76 143 213 -10 418 -10 C464 -10 506 -2 545 13 L674 -80 L737 -72 L588 33 C696 94 759 215 759 375 C759 594 613 760 418 760 L418 760 Z M136 375 C136 567 257 712 418 712 C578 712 699 567 699 375 C699 226 640 115 541 66 L467 118 L408 111 L495 48 C471 41 445 38 418 38 C250 38 136 173 136 375 L136 375 Z " />
<glyph glyph-name="R" unicode="R" horiz-adv-x="638" d="M105 0 L161 0 L161 335 L374 335 L538 0 L602 0 L437 337 C538 350 589 413 589 525 C589 675 525 750 398 750 L105 750 L105 0 Z M161 380 L161 705 L396 705 C487 705 533 645 533 525 C533 428 489 380 400 380 L161 380 Z " />
<glyph glyph-name="S" unicode="S" horiz-adv-x="521" d="M28 111 C75 39 152 -10 255 -10 C407 -10 486 78 486 209 C486 312 410 385 261 414 C162 433 113 483 113 554 C113 646 169 708 252 708 C303 708 370 669 439 592 L439 653 C375 725 307 760 252 760 C134 760 56 675 56 547 C56 451 121 382 246 358 C367 334 430 280 430 208 C430 108 372 41 255 41 C159 41 72 91 27 188 L28 111 Z " />
<glyph glyph-name="T" unicode="T" horiz-adv-x="595" d="M585 702 L585 750 L10 750 L10 702 L270 702 L270 0 L325 0 L325 702 L585 702 Z " />
<glyph glyph-name="U" unicode="U" horiz-adv-x="660" d="M98 750 L98 293 C98 92 179 -10 339 -10 C499 -10 580 92 580 292 L580 750 L521 750 L521 303 C521 130 460 44 339 44 C216 44 154 131 154 302 L154 750 L98 750 Z " />
<glyph glyph-name="V" unicode="V" horiz-adv-x="556" d="M31 750 L262 2 L262 0 L316 0 L546 750 L483 750 L288 88 L91 750 L31 750 Z " />
<glyph glyph-name="W" unicode="W" horiz-adv-x="770" d="M209 0 L262 0 L405 644 L548 0 L602 0 L760 750 L697 750 L574 125 L436 750 L372 750 L237 126 L115 750 L55 750 L209 0 Z " />
<glyph glyph-name="X" unicode="X" horiz-adv-x="613" d="M515 750 L319 443 L143 750 L86 750 L289 396 L36 0 L100 0 L319 344 L517 0 L574 0 L350 391 L579 750 L515 750 Z " />
<glyph glyph-name="Y" unicode="Y" horiz-adv-x="610" d="M289 330 L289 0 L345 0 L345 329 L600 750 L540 750 L316 377 L92 750 L35 750 L289 330 Z " />
<glyph glyph-name="Z" unicode="Z" horiz-adv-x="655" d="M45 0 L610 0 L610 48 L110 48 L610 702 L610 750 L60 750 L60 702 L545 702 L45 48 L45 0 Z " />
<glyph glyph-name="bracketleft" unicode="&#x5b;" horiz-adv-x="328" d="M298 -87 L168 -87 L168 722 L298 722 L298 750 L136 750 L136 -115 L298 -115 L298 -87 Z " />
<glyph glyph-name="backslash" unicode="&#x5c;" horiz-adv-x="312" d="M290 0 L312 0 L22 750 L0 750 L290 0 Z " />
<glyph glyph-name="bracketright" unicode="&#x5d;" horiz-adv-x="318" d="M30 722 L160 722 L160 -87 L30 -87 L30 -115 L193 -115 L193 750 L30 750 L30 722 Z " />
<glyph glyph-name="asciicircum" unicode="&#x5e;" horiz-adv-x="340" d="M170 711 L294 600 L340 600 L195 750 L145 750 L0 600 L46 600 L170 711 Z " />
<glyph glyph-name="underscore" unicode="&#x5f;" horiz-adv-x="680" d="M50 -115 L630 -115 L630 -85 L50 -85 L50 -115 Z " />
<glyph glyph-name="grave" unicode="&#x60;" horiz-adv-x="340" d="M147 600 L193 600 L128 750 L62 750 L147 600 Z " />
<glyph glyph-name="a" unicode="a" horiz-adv-x="518" d="M22 98 C22 33 93 -10 220 -10 C301 -10 380 22 407 126 L407 48 C404 2 405 0 392 0 L444 0 C456 0 457 2 457 48 L457 358 C457 482 376 530 251 530 C156 530 81 487 60 423 L60 372 C83 440 158 485 251 485 C347 485 409 443 409 368 L409 366 C406 304 340 288 238 266 C108 240 22 183 22 98 L22 98 Z M233 28 C191 28 74 35 74 98 C74 162 144 205 252 228 C323 243 377 257 408 288 C408 264 408 236 407 204 C407 69 333 28 233 28 L233 28 Z " />
<glyph glyph-name="b" unicode="b" horiz-adv-x="582" d="M70 0 L120 0 L120 125 C153 33 223 -10 315 -10 C446 -10 532 98 532 260 C532 422 446 530 315 530 C223 530 153 487 120 395 L120 750 L70 750 L70 0 Z M120 260 C120 417 191 487 298 487 C405 487 477 396 477 260 C477 124 405 33 298 33 C191 33 120 103 120 260 L120 260 Z " />
<glyph glyph-name="c" unicode="c" horiz-adv-x="545" d="M515 136 C486 73 416 33 320 33 C200 33 122 103 122 260 C122 416 204 484 312 484 C419 484 489 432 515 387 L515 442 C491 482 424 525 312 525 C175 525 67 444 67 260 C67 73 168 -10 320 -10 C417 -10 490 25 515 81 L515 136 Z " />
<glyph glyph-name="d" unicode="d" horiz-adv-x="561" d="M67 260 C67 98 145 -10 265 -10 C348 -10 410 41 441 128 L441 0 L491 0 L491 750 L441 750 L441 392 C410 479 348 530 265 530 C145 530 67 422 67 260 L67 260 Z M282 33 C186 33 122 124 122 260 C122 396 186 487 282 487 C377 487 441 396 441 260 C441 124 377 33 282 33 L282 33 Z " />
<glyph glyph-name="e" unicode="e" horiz-adv-x="572" d="M67 260 C67 73 174 -10 335 -10 C431 -10 490 32 521 92 L521 144 C486 81 430 35 335 35 C210 35 129 100 122 245 L528 245 C536 416 466 530 308 530 C164 530 67 447 67 260 L67 260 Z M122 278 C129 423 200 489 308 489 C431 489 483 392 478 245 L478 278 L122 278 Z " />
<glyph glyph-name="f" unicode="f" horiz-adv-x="327" d="M30 479 L110 479 L110 0 L160 0 L160 479 L335 479 L335 520 L160 520 L160 620 C160 684 194 707 245 708 C281 707 310 690 335 678 L335 720 C312 733 289 750 244 750 C172 747 110 714 110 620 L110 520 L30 520 L30 479 Z " />
<glyph glyph-name="g" unicode="g" horiz-adv-x="551" d="M67 260 C67 73 144 0 260 0 C340 0 400 49 431 129 L431 38 C431 -63 377 -131 261 -131 C163 -131 113 -102 81 -94 L81 -152 C106 -159 163 -179 262 -179 C405 -179 481 -90 481 46 L481 520 L431 520 L431 396 C400 480 340 530 260 530 C144 530 67 454 67 260 L67 260 Z M122 260 C122 423 184 487 277 487 C369 487 431 396 431 260 C431 129 369 43 277 43 C184 43 122 104 122 260 L122 260 Z " />
<glyph glyph-name="h" unicode="h" horiz-adv-x="516" d="M120 0 L120 348 C120 427 177 478 265 478 C345 478 396 423 396 315 L396 0 L446 0 L446 315 C446 455 382 525 285 525 C202 525 143 482 120 413 L120 750 L70 750 L70 0 L120 0 Z " />
<glyph glyph-name="i" unicode="i" horiz-adv-x="262" d="M142 0 L192 0 L192 520 L142 520 L142 0 Z M137 600 L197 600 C198 611 198 621 198 630 C198 646 198 661 197 660 C197 659 192 658 181 658 C173 658 162 659 153 659 C148 659 142 659 137 660 L137 600 Z " />
<glyph glyph-name="j" unicode="j" horiz-adv-x="179" d="M-59 -127 C-35 -134 -13 -137 6 -137 C75 -137 116 -96 116 0 L116 520 L66 520 L66 0 C66 -70 44 -87 4 -87 C-15 -87 -35 -84 -59 -80 L-59 -127 Z M61 600 L121 600 L121 660 L61 660 L61 600 Z " />
<glyph glyph-name="k" unicode="k" horiz-adv-x="540" d="M120 750 L70 750 L70 0 L120 0 L120 251 L463 0 L530 0 L173 271 L496 520 L432 520 L137 299 L120 312 L120 750 Z " />
<glyph glyph-name="l" unicode="l" horiz-adv-x="222" d="M152 0 L152 750 L102 750 L102 0 L152 0 Z " />
<glyph glyph-name="m" unicode="m" horiz-adv-x="799" d="M65 0 L115 0 L115 348 C115 427 167 478 244 478 C316 478 363 423 363 315 L363 0 L413 0 L413 315 C413 330 412 343 411 355 C415 430 472 478 552 478 C632 478 684 423 684 315 L684 0 L734 0 L734 315 C734 455 670 525 573 525 C485 525 423 476 404 399 C384 483 333 525 264 525 C191 525 136 484 115 416 L115 520 L65 520 L65 0 Z " />
<glyph glyph-name="n" unicode="n" horiz-adv-x="506" d="M115 0 L115 348 C115 427 172 478 260 478 C340 478 391 423 391 315 L391 0 L441 0 L441 315 C441 455 377 525 280 525 C197 525 138 482 115 413 L115 520 L65 520 L65 0 L115 0 Z " />
<glyph glyph-name="o" unicode="o" horiz-adv-x="590" d="M67 260 C67 98 140 -10 304 -10 C445 -10 540 73 540 260 C540 422 467 530 304 530 C162 530 67 447 67 260 L67 260 Z M122 260 C122 419 195 491 304 491 C429 491 485 399 485 260 C485 101 413 29 304 29 C178 29 122 121 122 260 L122 260 Z " />
<glyph glyph-name="p" unicode="p" horiz-adv-x="582" d="M120 -155 L120 134 C151 35 222 -10 317 -10 C446 -10 532 98 532 260 C532 422 446 530 317 530 C222 530 151 485 120 386 L120 520 L70 520 L70 -155 L120 -155 Z M120 260 C120 417 192 487 300 487 C407 487 477 396 477 260 C477 124 407 33 300 33 C192 33 120 103 120 260 L120 260 Z " />
<glyph glyph-name="q" unicode="q" horiz-adv-x="556" d="M67 260 C67 98 145 -10 261 -10 C345 -10 407 44 436 136 L436 -155 L486 -155 L486 520 L436 520 L436 384 C407 476 345 530 261 530 C145 530 67 422 67 260 L67 260 Z M278 33 C184 33 122 124 122 260 C122 396 184 487 278 487 C373 487 436 396 436 260 C436 124 373 33 278 33 L278 33 Z " />
<glyph glyph-name="r" unicode="r" horiz-adv-x="420" d="M120 0 L120 308 C120 409 167 478 311 478 C336 478 358 471 374 463 C383 458 392 453 400 448 L400 494 C375 517 351 525 310 525 C198 525 141 475 120 394 L120 520 L70 520 L70 0 L120 0 Z " />
<glyph glyph-name="s" unicode="s" horiz-adv-x="451" d="M53 96 C77 35 148 -5 234 -5 C346 -5 421 61 421 161 C421 229 364 276 251 287 C159 295 112 327 112 372 C112 440 166 486 246 486 C318 486 381 449 408 390 L408 439 C384 491 320 525 246 525 C137 525 64 461 64 368 C64 300 123 254 239 243 C327 235 372 204 372 157 C372 84 318 36 234 36 C152 36 80 83 53 152 L53 96 Z " />
<glyph glyph-name="t" unicode="t" horiz-adv-x="395" d="M365 474 L365 520 L172 520 L172 697 L122 655 L122 520 L10 520 L10 474 L122 474 L122 167 C122 54 173 -10 293 -10 C314 -10 343 -8 370 11 L370 55 C346 44 328 35 307 35 C199 35 172 77 172 167 L172 474 L365 474 Z " />
<glyph glyph-name="u" unicode="u" horiz-adv-x="502" d="M65 172 C65 52 103 -10 236 -10 C308 -10 359 25 382 82 L382 0 L432 0 L432 520 L382 520 L382 144 C382 80 331 37 252 37 C145 37 115 83 115 172 L115 520 L65 520 L65 172 L65 172 Z " />
<glyph glyph-name="v" unicode="v" horiz-adv-x="499" d="M28 520 L225 0 L280 0 L480 520 L425 520 L254 42 L84 520 L28 520 Z " />
<glyph glyph-name="w" unicode="w" horiz-adv-x="745" d="M196 0 L246 0 L381 444 L516 0 L566 0 L726 520 L670 520 L540 52 L402 515 L404 520 L358 520 L220 52 L89 520 L36 520 L196 0 Z " />
<glyph glyph-name="x" unicode="x" horiz-adv-x="468" d="M383 520 L231 318 L83 520 L21 520 L199 276 L-8 0 L57 0 L231 232 L401 0 L463 0 L263 274 L448 520 L383 520 Z " />
<glyph glyph-name="y" unicode="y" horiz-adv-x="517" d="M227 -11 L224 -18 C187 -117 163 -145 119 -145 C108 -145 94 -143 79 -140 C70 -139 62 -137 53 -135 L53 -180 C62 -182 70 -184 79 -186 C94 -189 108 -191 119 -191 C178 -191 224 -146 269 -27 L480 520 L421 520 L253 62 L84 520 L28 520 L227 -11 Z " />
<glyph glyph-name="z" unicode="z" horiz-adv-x="451" d="M21 0 L431 0 L431 41 L82 41 L415 488 L415 520 L36 520 L36 479 L352 479 L21 32 L21 0 Z " />
<glyph glyph-name="braceleft" unicode="&#x7b;" horiz-adv-x="320" d="M65 306 C108 306 136 283 136 248 L136 -20 C136 -77 169 -115 220 -115 L290 -115 L290 -87 L220 -87 C189 -87 168 -60 168 -20 L168 241 C168 282 146 311 111 318 C146 325 168 353 168 394 L168 655 C168 695 189 722 220 722 L290 722 L290 750 L220 750 C169 750 136 712 136 655 L136 387 C136 352 108 329 65 329 L55 329 L55 306 L65 306 Z " />
<glyph glyph-name="bar" unicode="&#x7c;" horiz-adv-x="123" d="M45 800 L45 -250 L78 -250 L78 800 L45 800 Z " />
<glyph glyph-name="braceright" unicode="&#x7d;" horiz-adv-x="320" d="M55 750 L55 722 L125 722 C156 722 177 695 177 655 L177 394 C177 353 199 324 234 317 C199 310 177 282 177 241 L177 -20 C177 -60 156 -87 125 -87 L55 -87 L55 -115 L125 -115 C176 -115 209 -77 209 -20 L209 248 C209 283 237 306 280 306 L290 306 L290 329 L280 329 C237 329 209 352 209 387 L209 655 C209 712 176 750 125 750 L55 750 Z " />
<glyph glyph-name="asciitilde" unicode="&#x7e;" horiz-adv-x="340" d="M90 260 C90 299 108 313 123 324 C150 324 188 250 220 250 C260 250 287 290 287 353 L250 353 C250 314 237 289 217 289 C206 292 151 363 120 363 C80 363 53 323 53 260 L90 260 Z " />
<glyph glyph-name="uni00A0" unicode="&#xa0;" horiz-adv-x="220" d="" />
<glyph glyph-name="exclamdown" unicode="&#xa1;" horiz-adv-x="149" d="M104 0 L104 310 L82 557 L67 557 L45 310 L45 0 L104 0 Z M44 690 L104 690 L104 750 L44 750 L44 690 Z " />
<glyph glyph-name="cent" unicode="&#xa2;" horiz-adv-x="545" d="M320 33 C200 33 122 103 122 260 C122 391 179 484 318 484 L320 33 Z M317 595 L317 525 C153 525 67 420 67 260 C67 73 168 -10 320 -10 L321 -10 L321 -75 L348 -75 L348 -9 C432 -2 492 30 515 81 L515 136 C488 80 430 41 347 34 L345 482 C432 474 492 425 515 387 L515 442 C492 478 437 516 344 524 L344 595 L317 595 Z " />
<glyph glyph-name="guillemotleft" unicode="&#xab;" horiz-adv-x="483" d="M84 260 L224 50 L268 50 L128 260 L268 470 L224 470 L84 260 Z M384 50 L427 50 L287 260 L427 470 L384 470 L244 260 L384 50 Z " />
<glyph glyph-name="logicalnot" unicode="&#xac;" horiz-adv-x="452" d="M350 241 L350 91 L402 91 L402 285 L50 285 L50 241 L350 241 Z " />
<glyph glyph-name="acute" unicode="&#xb4;" horiz-adv-x="340" d="M147 600 L193 600 L278 750 L212 750 L147 600 Z " />
<glyph glyph-name="middot" unicode="&#xb7;" horiz-adv-x="160" d="M50 230 L110 230 L110 290 L50 290 L50 230 Z " />
<glyph glyph-name="guillemotright" unicode="&#xbb;" horiz-adv-x="465" d="M138 50 L278 260 L138 470 L94 470 L234 260 L94 50 L138 50 Z M254 50 L297 50 L437 260 L297 470 L254 470 L394 260 L254 50 Z " />
<glyph glyph-name="questiondown" unicode="&#xbf;" horiz-adv-x="530" d="M509 176 C461 88 406 34 267 34 C159 34 87 92 87 180 C87 269 109 314 168 341 C274 389 294 426 294 557 L246 557 C246 447 228 419 133 374 C62 341 35 287 35 180 C35 65 127 -10 267 -10 C405 -10 476 37 508 109 L509 176 Z M300 750 L240 750 L240 690 L300 690 L300 750 Z " />
<glyph glyph-name="Agrave" unicode="&#xc0;" horiz-adv-x="724" d="M91 0 L180 216 L565 216 L654 0 L714 0 L403 750 L342 750 L28 0 L91 0 Z M373 681 L547 260 L198 260 L373 681 Z M266 980 L351 830 L397 830 L332 980 L266 980 Z " />
<glyph glyph-name="Aacute" unicode="&#xc1;" horiz-adv-x="724" d="M91 0 L180 216 L565 216 L654 0 L714 0 L403 750 L342 750 L28 0 L91 0 Z M373 681 L547 260 L198 260 L373 681 Z M397 830 L482 980 L416 980 L351 830 L397 830 Z " />
<glyph glyph-name="Acircumflex" unicode="&#xc2;" horiz-adv-x="724" d="M28 0 L91 0 L180 216 L565 216 L654 0 L714 0 L403 750 L342 750 L28 0 Z M373 681 L547 260 L198 260 L373 681 Z M250 830 L374 941 L498 830 L544 830 L399 980 L349 980 L204 830 L250 830 Z " />
<glyph glyph-name="Atilde" unicode="&#xc3;" horiz-adv-x="724" d="M373 681 L547 260 L198 260 L373 681 Z M654 0 L714 0 L403 750 L342 750 L28 0 L91 0 L180 216 L565 216 L654 0 Z M324 933 C284 933 257 893 257 830 L294 830 C294 869 307 894 327 894 C354 894 392 820 424 820 C464 820 491 860 491 923 L454 923 C454 884 441 859 421 859 C378 878 357 933 324 933 L324 933 Z " />
<glyph glyph-name="Adieresis" unicode="&#xc4;" horiz-adv-x="724" d="M28 0 L91 0 L180 216 L565 216 L654 0 L714 0 L403 750 L342 750 L28 0 Z M373 681 L547 260 L198 260 L373 681 Z M473 830 L473 890 L413 890 L413 830 L473 830 Z M275 830 L335 830 L335 890 L275 890 L275 830 Z " />
<glyph glyph-name="Aring" unicode="&#xc5;" horiz-adv-x="724" d="M28 0 L91 0 L180 216 L565 216 L654 0 L714 0 L403 750 L342 750 L28 0 Z M373 681 L547 260 L198 260 L373 681 Z M374 1000 C323 1000 293 970 293 915 C293 858 320 830 374 830 C428 830 455 858 455 915 C455 970 425 1000 374 1000 L374 1000 Z M374 853 C337 853 318 874 318 915 C318 954 339 977 374 977 C415 977 430 954 430 915 C430 874 411 853 374 853 L374 853 Z " />
<glyph glyph-name="Ccedilla" unicode="&#xc7;" horiz-adv-x="710" d="M411 760 C207 760 71 583 71 375 C71 183 187 17 366 -7 L338 -103 L354 -112 L354 -111 C357 -104 376 -96 400 -96 C429 -96 449 -115 449 -146 C449 -185 424 -195 393 -195 C373 -195 351 -191 331 -187 L331 -212 C354 -217 378 -222 402 -222 C442 -222 477 -206 477 -146 C477 -101 448 -71 405 -71 C384 -71 370 -76 362 -85 L385 -9 C393 -10 402 -10 411 -10 C548 -10 658 37 690 106 L690 173 C655 92 541 38 411 38 C243 38 131 193 131 375 C131 557 243 712 411 712 C531 712 645 658 690 578 L690 643 C650 713 537 760 411 760 L411 760 Z " />
<glyph glyph-name="Egrave" unicode="&#xc8;" horiz-adv-x="586" d="M105 0 L536 0 L536 48 L161 48 L161 364 L501 364 L501 410 L161 410 L161 702 L521 702 L521 750 L105 750 L105 0 Z M205 980 L290 830 L336 830 C324 858 313 883 304 905 C296 924 288 941 281 956 C278 965 274 973 271 980 L205 980 Z " />
<glyph glyph-name="Eacute" unicode="&#xc9;" horiz-adv-x="586" d="M105 0 L536 0 L536 48 L161 48 L161 364 L501 364 L501 410 L161 410 L161 702 L521 702 L521 750 L105 750 L105 0 Z M336 830 C352 858 366 883 379 905 C390 924 400 941 408 956 C413 965 417 973 421 980 L355 980 L290 830 L336 830 Z " />
<glyph glyph-name="Ecircumflex" unicode="&#xca;" horiz-adv-x="586" d="M105 0 L536 0 L536 48 L161 48 L161 364 L501 364 L501 410 L161 410 L161 702 L521 702 L521 750 L105 750 L105 0 Z M313 941 L437 830 L483 830 L338 980 L288 980 L143 830 L189 830 L313 941 Z " />
<glyph glyph-name="Edieresis" unicode="&#xcb;" horiz-adv-x="586" d="M105 0 L536 0 L536 48 L161 48 L161 364 L501 364 L501 410 L161 410 L161 702 L521 702 L521 750 L105 750 L105 0 Z M412 830 L412 890 L352 890 L352 830 L412 830 Z M214 890 L214 830 L274 830 L274 890 L214 890 Z " />
<glyph glyph-name="Igrave" unicode="&#xcc;" horiz-adv-x="227" d="M142 0 L142 750 L86 750 L86 0 L142 0 Z M91 830 L137 830 L72 980 L6 980 L91 830 Z " />
<glyph glyph-name="Iacute" unicode="&#xcd;" horiz-adv-x="227" d="M142 0 L142 750 L86 750 L86 0 L142 0 Z M91 830 L137 830 L222 980 L156 980 L91 830 Z " />
<glyph glyph-name="Icircumflex" unicode="&#xce;" horiz-adv-x="227" d="M142 0 L142 750 L86 750 L86 0 L142 0 Z M114 941 L238 830 L284 830 L139 980 L89 980 L-56 830 L-10 830 L114 941 Z " />
<glyph glyph-name="Idieresis" unicode="&#xcf;" horiz-adv-x="227" d="M142 0 L142 750 L86 750 L86 0 L142 0 Z M15 830 L75 830 L75 890 L15 890 L15 830 Z M153 830 L213 830 L213 890 L153 890 L153 830 Z " />
<glyph glyph-name="Ntilde" unicode="&#xd1;" horiz-adv-x="674" d="M530 750 L530 78 L166 750 L104 750 L104 0 L163 0 L163 641 L510 0 L589 0 L589 750 L530 750 Z M297 933 C257 933 230 893 230 830 L267 830 C267 869 280 894 300 894 C327 894 365 820 397 820 C437 820 463 860 463 923 L427 923 C427 884 414 859 394 859 C356 873 330 933 297 933 L297 933 Z " />
<glyph glyph-name="Ograve" unicode="&#xd2;" horiz-adv-x="814" d="M418 760 C223 760 76 594 76 375 C76 143 213 -10 418 -10 C623 -10 759 143 759 375 C759 594 613 760 418 760 L418 760 Z M136 375 C136 567 257 712 418 712 C578 712 699 567 699 375 C699 173 587 38 418 38 C250 38 136 173 136 375 L136 375 Z M376 980 C375 979 369 979 358 979 C347 979 336 979 327 980 L310 980 L395 830 L441 830 C429 857 418 882 409 904 C392 941 376 977 376 980 L376 980 Z " />
<glyph glyph-name="Oacute" unicode="&#xd3;" horiz-adv-x="814" d="M418 760 C223 760 76 594 76 375 C76 143 213 -10 418 -10 C623 -10 759 143 759 375 C759 594 613 760 418 760 L418 760 Z M136 375 C136 567 257 712 418 712 C578 712 699 567 699 375 C699 173 587 38 418 38 C250 38 136 173 136 375 L136 375 Z M441 830 C456 857 469 881 482 903 C502 940 523 977 526 980 C525 979 518 979 507 979 C498 979 487 979 476 980 L460 980 L395 830 L441 830 Z " />
<glyph glyph-name="Ocircumflex" unicode="&#xd4;" horiz-adv-x="814" d="M76 375 C76 143 213 -10 418 -10 C623 -10 759 143 759 375 C759 594 613 760 418 760 C223 760 76 594 76 375 L76 375 Z M136 375 C136 567 257 712 418 712 C578 712 699 567 699 375 C699 173 587 38 418 38 C250 38 136 173 136 375 L136 375 Z M418 941 L542 830 L588 830 L443 980 L393 980 L248 830 L294 830 L418 941 Z " />
<glyph glyph-name="Otilde" unicode="&#xd5;" horiz-adv-x="814" d="M76 375 C76 143 213 -10 418 -10 C623 -10 759 143 759 375 C759 594 613 760 418 760 C223 760 76 594 76 375 L76 375 Z M418 38 C250 38 136 173 136 375 C136 567 257 712 418 712 C578 712 699 567 699 375 C699 173 587 38 418 38 L418 38 Z M368 933 C325 933 301 893 301 830 L338 830 C338 869 351 894 371 894 C398 894 436 820 468 820 C508 820 535 860 535 923 L498 923 C498 884 485 859 465 859 C432 874 400 933 368 933 L368 933 Z " />
<glyph glyph-name="Odieresis" unicode="&#xd6;" horiz-adv-x="814" d="M76 375 C76 143 213 -10 418 -10 C623 -10 759 143 759 375 C759 594 613 760 418 760 C223 760 76 594 76 375 L76 375 Z M136 375 C136 567 257 712 418 712 C578 712 699 567 699 375 C699 173 587 38 418 38 C250 38 136 173 136 375 L136 375 Z M319 830 L379 830 L379 890 L319 890 L319 830 Z M457 830 L517 830 L517 890 L457 890 L457 830 Z " />
<glyph glyph-name="Oslash" unicode="&#xd8;" horiz-adv-x="814" d="M107 -10 C113 -3 120 6 128 15 C141 30 161 53 184 81 C244 22 322 -10 418 -10 C623 -10 759 143 759 375 C759 483 723 579 663 648 C719 712 755 755 759 760 C758 759 755 759 749 759 C745 759 739 759 735 760 L728 760 L647 665 C587 725 509 760 418 760 C223 760 76 594 76 375 C76 260 108 166 168 98 L76 -10 L107 -10 Z M220 124 C332 257 507 464 627 605 C672 545 699 467 699 375 C699 173 587 38 418 38 C337 38 269 68 220 124 L220 124 Z M205 142 C161 201 136 279 136 375 C136 567 257 712 418 712 C495 712 561 679 612 623 L205 142 Z " />
<glyph glyph-name="Ugrave" unicode="&#xd9;" horiz-adv-x="660" d="M98 750 L98 293 C98 92 179 -10 339 -10 C499 -10 580 92 580 292 L580 750 L521 750 L521 303 C521 130 460 44 339 44 C216 44 154 131 154 302 L154 750 L98 750 Z M316 820 L362 820 C350 847 339 872 329 894 C313 931 297 969 297 970 L279 970 L231 970 L316 820 Z " />
<glyph glyph-name="Uacute" unicode="&#xda;" horiz-adv-x="660" d="M98 293 C98 92 179 -10 339 -10 C499 -10 580 92 580 292 L580 750 L521 750 L521 303 C521 130 460 44 339 44 C216 44 154 131 154 302 L154 750 L98 750 L98 293 L98 293 Z M362 820 C377 847 391 872 403 894 C424 931 444 967 447 970 L429 970 L381 970 L316 820 L362 820 Z " />
<glyph glyph-name="Ucircumflex" unicode="&#xdb;" horiz-adv-x="660" d="M98 750 L98 293 C98 92 179 -10 339 -10 C499 -10 580 92 580 292 L580 750 L521 750 L521 303 C521 130 460 44 339 44 C216 44 154 131 154 302 L154 750 L98 750 Z M339 931 L463 820 L509 820 L364 970 L314 970 L169 820 L215 820 L339 931 Z " />
<glyph glyph-name="Udieresis" unicode="&#xdc;" horiz-adv-x="660" d="M98 750 L98 293 C98 92 179 -10 339 -10 C499 -10 580 92 580 292 L580 750 L521 750 L521 303 C521 130 460 44 339 44 C216 44 154 131 154 302 L154 750 L98 750 Z M240 820 L300 820 L300 880 L240 880 L240 820 Z M378 820 L438 820 L438 880 L378 880 L378 820 Z " />
<glyph glyph-name="Yacute" unicode="&#xdd;" horiz-adv-x="610" d="M289 330 L289 0 L345 0 L345 329 L600 750 L540 750 L316 377 L92 750 L35 750 L289 330 Z M340 830 L425 980 L360 980 L295 830 L340 830 Z " />
<glyph glyph-name="Thorn" unicode="&#xde;" horiz-adv-x="624" d="M105 0 L161 0 L161 150 L398 150 C525 150 589 226 589 375 C589 525 525 600 398 600 L161 600 L161 750 L105 750 L105 0 Z M161 195 L161 555 L396 555 C487 555 533 495 533 375 C533 255 489 195 400 195 L161 195 Z " />
<glyph glyph-name="agrave" unicode="&#xe0;" horiz-adv-x="521" d="M238 266 C108 240 22 183 22 98 C22 33 93 -10 220 -10 C301 -10 380 22 407 126 L407 48 L407 0 L457 0 L457 358 C457 482 376 530 251 530 C156 530 81 487 60 423 L60 372 C83 440 158 485 251 485 C347 485 409 443 409 368 L409 366 C406 304 340 288 238 266 L238 266 Z M74 98 C74 162 144 205 252 228 C323 243 377 257 408 288 C408 259 408 224 407 183 C399 65 329 28 233 28 C191 28 74 35 74 98 L74 98 Z M228 600 L274 600 L209 750 L143 750 L228 600 Z " />
<glyph glyph-name="aacute" unicode="&#xe1;" horiz-adv-x="521" d="M238 266 C108 240 22 183 22 98 C22 33 93 -10 220 -10 C301 -10 380 22 407 126 L407 48 L407 0 L457 0 L457 358 C457 482 376 530 251 530 C156 530 81 487 60 423 L60 372 C83 440 158 485 251 485 C347 485 409 443 409 368 L409 366 C406 304 340 288 238 266 L238 266 Z M74 98 C74 162 144 205 252 228 C323 243 377 257 408 288 C408 259 408 224 407 183 C399 65 329 28 233 28 C191 28 74 35 74 98 L74 98 Z M228 600 L274 600 L359 750 L293 750 L228 600 Z " />
<glyph glyph-name="acircumflex" unicode="&#xe2;" horiz-adv-x="520" d="M240 266 C110 240 24 183 24 98 C24 33 95 -10 222 -10 C303 -10 382 22 409 126 L409 48 L409 0 L459 0 L459 358 C459 482 378 530 253 530 C158 530 83 487 62 423 L62 372 C85 440 160 485 253 485 C349 485 411 443 411 368 L411 366 C408 304 342 288 240 266 L240 266 Z M235 28 C193 28 76 35 76 98 C76 162 146 205 254 228 C325 243 379 257 410 288 C410 259 410 224 409 183 C401 65 331 28 235 28 L235 28 Z M81 600 L127 600 L251 711 C259 711 290 683 319 656 C336 639 355 621 375 600 L421 600 L276 750 L226 750 L81 600 Z " />
<glyph glyph-name="atilde" unicode="&#xe3;" horiz-adv-x="520" d="M238 270 C108 244 22 187 22 102 C22 37 93 -6 220 -6 C301 -6 380 26 407 130 L407 52 L407 4 L457 4 L457 362 C457 486 376 534 251 534 C156 534 81 491 60 427 L60 376 C83 444 158 489 251 489 C347 489 409 447 409 372 L409 370 C406 308 340 292 238 270 L238 270 Z M233 32 C191 32 74 39 74 102 C74 166 144 209 252 232 C323 247 377 261 408 292 C408 263 408 228 407 187 C399 69 329 32 233 32 L233 32 Z M171 600 C171 639 184 664 204 664 C231 664 269 590 301 590 C341 590 368 630 368 693 L331 693 C331 654 318 629 298 629 L297 629 C297 629 296 629 295 630 C276 638 230 703 201 703 C161 703 134 663 134 600 L171 600 Z " />
<glyph glyph-name="adieresis" unicode="&#xe4;" horiz-adv-x="520" d="M240 273 C110 247 24 190 24 105 C24 40 95 -3 222 -3 C303 -3 382 29 409 133 L409 55 L409 7 L459 7 L459 365 C459 489 378 537 253 537 C158 537 83 494 62 430 L62 379 C85 447 160 492 253 492 C349 492 411 450 411 375 L411 373 C408 311 342 295 240 273 L240 273 Z M235 35 C193 35 76 42 76 105 C76 169 146 212 254 235 C325 250 379 264 410 295 C410 266 410 231 409 190 C401 72 331 35 235 35 L235 35 Z M299 600 L359 600 L359 660 L299 660 L299 600 Z M204 600 L204 660 L144 660 L144 600 L204 600 Z " />
<glyph glyph-name="aring" unicode="&#xe5;" horiz-adv-x="520" d="M23 100 C23 35 94 -8 221 -8 C302 -8 381 24 408 128 L408 50 L408 2 L458 2 L458 360 C458 484 377 532 252 532 C157 532 82 489 61 425 L61 374 C84 442 159 487 252 487 C348 487 410 445 410 370 L410 368 C407 306 341 290 239 268 C109 242 23 185 23 100 L23 100 Z M75 100 C75 164 145 207 253 230 C324 245 378 259 409 290 C409 261 409 226 408 185 C400 67 330 30 234 30 C192 30 75 37 75 100 L75 100 Z M170 685 C170 628 197 600 251 600 C305 600 332 628 332 685 C332 740 302 770 251 770 C200 770 170 740 170 685 L170 685 Z M251 623 C214 623 195 644 195 685 C195 724 216 747 251 747 C286 747 307 724 307 685 C307 644 288 623 251 623 L251 623 Z " />
<glyph glyph-name="ccedilla" unicode="&#xe7;" horiz-adv-x="547" d="M314 525 C177 525 69 444 69 260 C69 92 151 7 279 -8 L250 -103 L266 -112 C269 -101 287 -96 312 -96 C341 -96 361 -115 361 -146 C361 -185 336 -199 305 -199 C284 -199 260 -193 243 -182 L243 -210 C263 -219 287 -225 310 -225 C352 -225 389 -205 389 -146 C389 -101 360 -71 317 -71 C293 -71 281 -75 273 -88 L297 -9 C305 -10 314 -10 322 -10 C419 -10 492 25 517 81 L517 136 C488 73 418 33 322 33 C202 33 124 103 124 260 C124 416 206 484 314 484 C421 484 491 432 517 387 L517 442 C493 482 426 525 314 525 L314 525 Z " />
<glyph glyph-name="egrave" unicode="&#xe8;" horiz-adv-x="551" d="M308 530 C164 530 67 447 67 260 C67 73 174 -10 335 -10 C431 -10 490 32 521 92 L521 144 C486 81 430 35 335 35 C210 35 129 100 122 245 L528 245 C536 416 466 530 308 530 L308 530 Z M122 278 C129 423 200 489 308 489 C431 489 483 391 478 278 L122 278 Z M200 750 L285 600 L331 600 L266 750 L200 750 Z " />
<glyph glyph-name="eacute" unicode="&#xe9;" horiz-adv-x="551" d="M308 530 C164 530 67 447 67 260 C67 73 174 -10 335 -10 C431 -10 490 32 521 92 L521 144 C486 81 430 35 335 35 C210 35 129 100 122 245 L528 245 C536 416 466 530 308 530 L308 530 Z M122 278 C129 423 200 489 308 489 C431 489 483 391 478 278 L122 278 Z M331 600 L416 750 L350 750 L285 600 L331 600 Z " />
<glyph glyph-name="ecircumflex" unicode="&#xea;" horiz-adv-x="551" d="M308 530 C164 530 67 447 67 260 C67 73 174 -10 335 -10 C431 -10 490 32 521 92 L521 144 C486 81 430 35 335 35 C210 35 129 100 122 245 L528 245 C536 416 466 530 308 530 L308 530 Z M122 278 C129 423 200 489 308 489 C431 489 483 391 478 278 L122 278 Z M138 600 L184 600 L308 711 L432 600 L478 600 L333 750 L283 750 L138 600 Z " />
<glyph glyph-name="edieresis" unicode="&#xeb;" horiz-adv-x="551" d="M308 530 C164 530 67 447 67 260 C67 73 174 -10 335 -10 C431 -10 490 32 521 92 L521 144 C486 81 430 35 335 35 C210 35 129 100 122 245 L528 245 C536 416 466 530 308 530 L308 530 Z M122 278 C129 423 200 489 308 489 C431 489 483 391 478 278 L122 278 Z M347 600 L407 600 L407 660 L347 660 L347 600 Z M269 600 L269 660 L209 660 L209 600 L269 600 Z " />
<glyph glyph-name="igrave" unicode="&#xec;" horiz-adv-x="262" d="M142 0 L192 0 L192 520 L142 520 L142 0 Z M144 600 L190 600 C178 628 167 653 158 675 C142 714 125 751 125 750 C125 749 119 748 108 748 C97 748 87 749 76 749 C70 749 64 749 59 750 L144 600 Z " />
<glyph glyph-name="iacute" unicode="&#xed;" horiz-adv-x="262" d="M142 0 L192 0 L192 520 L142 520 L142 0 Z M144 600 L190 600 C206 628 220 653 233 675 C255 714 276 751 275 750 C275 749 269 748 258 748 C247 748 237 749 226 749 C220 749 214 749 209 750 L144 600 Z " />
<glyph glyph-name="icircumflex" unicode="&#xee;" horiz-adv-x="262" d="M142 520 L142 0 L192 0 L192 520 L142 520 Z M-3 600 L43 600 L167 711 L291 600 L337 600 L192 750 L142 750 L-3 600 Z " />
<glyph glyph-name="idieresis" unicode="&#xef;" horiz-adv-x="262" d="M142 0 L192 0 L192 520 L142 520 L142 0 Z M60 600 L120 600 L120 660 L60 660 L60 600 Z M215 600 L275 600 L275 660 L215 660 L215 600 Z " />
<glyph glyph-name="ntilde" unicode="&#xf1;" horiz-adv-x="506" d="M65 520 L65 0 L115 0 L115 348 C115 427 172 478 260 478 C340 478 391 423 391 315 L391 0 L441 0 L441 315 C441 455 377 525 280 525 C197 525 138 482 115 413 L115 520 L65 520 Z M173 600 C173 639 186 664 206 664 C233 664 271 590 303 590 C343 590 370 630 370 693 L333 693 C333 654 320 629 300 629 C270 643 240 703 203 703 C166 703 136 663 136 600 L173 600 Z " />
<glyph glyph-name="ograve" unicode="&#xf2;" horiz-adv-x="590" d="M67 260 C67 98 140 -10 304 -10 C445 -10 540 73 540 260 C540 422 467 530 304 530 C162 530 67 447 67 260 L67 260 Z M122 260 C122 419 195 491 304 491 C429 491 485 399 485 260 C485 101 413 29 304 29 C178 29 122 121 122 260 L122 260 Z M281 600 L327 600 C314 628 303 653 294 675 C277 712 261 750 262 750 L196 750 L281 600 Z " />
<glyph glyph-name="oacute" unicode="&#xf3;" horiz-adv-x="590" d="M67 260 C67 98 140 -10 304 -10 C445 -10 540 73 540 260 C540 422 467 530 304 530 C162 530 67 447 67 260 L67 260 Z M122 260 C122 419 195 491 304 491 C429 491 485 399 485 260 C485 101 413 29 304 29 C178 29 122 121 122 260 L122 260 Z M281 600 L327 600 C342 628 356 653 369 675 C390 714 411 750 412 750 L346 750 L281 600 Z " />
<glyph glyph-name="ocircumflex" unicode="&#xf4;" horiz-adv-x="590" d="M67 260 C67 98 140 -10 304 -10 C445 -10 540 73 540 260 C540 422 467 530 304 530 C162 530 67 447 67 260 L67 260 Z M122 260 C122 419 195 491 304 491 C429 491 485 399 485 260 C485 101 413 29 304 29 C178 29 122 121 122 260 L122 260 Z M304 711 L428 600 L474 600 L329 750 L279 750 L134 600 L180 600 L304 711 Z " />
<glyph glyph-name="otilde" unicode="&#xf5;" horiz-adv-x="590" d="M304 530 C162 530 67 447 67 260 C67 98 140 -10 304 -10 C445 -10 540 73 540 260 C540 422 467 530 304 530 L304 530 Z M304 29 C178 29 122 121 122 260 C122 419 195 491 304 491 C429 491 485 399 485 260 C485 101 413 29 304 29 L304 29 Z M224 600 C224 639 237 664 257 664 C284 664 322 590 354 590 C394 590 421 630 421 693 L384 693 C384 654 371 629 351 629 C319 642 291 703 256 703 C201 703 187 644 187 600 L224 600 Z " />
<glyph glyph-name="odieresis" unicode="&#xf6;" horiz-adv-x="590" d="M67 260 C67 98 140 -10 304 -10 C445 -10 540 73 540 260 C540 422 467 530 304 530 C162 530 67 447 67 260 L67 260 Z M122 260 C122 419 195 491 304 491 C429 491 485 399 485 260 C485 101 413 29 304 29 C178 29 122 121 122 260 L122 260 Z M205 600 L265 600 L265 660 L205 660 L205 600 Z M343 600 L403 600 L403 660 L343 660 L343 600 Z " />
<glyph glyph-name="oslash" unicode="&#xf8;" horiz-adv-x="590" d="M89 -10 C93 -5 97 0 102 6 C111 17 123 30 138 49 C177 10 231 -10 304 -10 C445 -10 540 73 540 260 C540 344 521 412 480 459 C499 482 513 498 524 511 C530 518 535 525 540 530 L518 530 L469 471 C430 510 376 530 304 530 C162 530 67 447 67 260 C67 176 86 109 127 61 L67 -10 L89 -10 Z M170 87 C248 181 364 322 447 420 C474 380 485 325 485 260 C485 101 413 29 304 29 C244 29 201 50 170 87 L170 87 Z M160 101 C133 141 122 195 122 260 C122 419 195 491 304 491 C364 491 406 470 437 433 L160 101 Z " />
<glyph glyph-name="ugrave" unicode="&#xf9;" horiz-adv-x="502" d="M65 172 C65 52 103 -10 236 -10 C308 -10 359 25 382 82 L382 0 L432 0 L432 520 L382 520 L382 144 C382 80 331 37 252 37 C145 37 115 83 115 172 L115 520 L65 520 L65 172 Z M206 750 C205 749 199 749 188 749 C179 749 168 749 157 750 L141 750 L226 600 L271 600 C259 627 248 652 239 674 C222 711 206 747 206 750 L206 750 Z " />
<glyph glyph-name="uacute" unicode="&#xfa;" horiz-adv-x="502" d="M65 172 C65 52 103 -10 236 -10 C308 -10 359 25 382 82 L382 0 L432 0 L432 520 L382 520 L382 144 C382 80 331 37 252 37 C145 37 115 83 115 172 L115 520 L65 520 L65 172 Z M271 600 C286 627 299 651 312 673 C332 710 353 747 356 750 C355 749 348 749 337 749 C328 749 316 749 307 750 L291 750 L226 600 L271 600 Z " />
<glyph glyph-name="ucircumflex" unicode="&#xfb;" horiz-adv-x="502" d="M65 172 C65 52 103 -10 236 -10 C308 -10 359 25 382 82 L382 0 L432 0 L432 520 L382 520 L382 144 C382 80 331 37 252 37 C145 37 115 83 115 172 L115 520 L65 520 L65 172 L65 172 Z M79 600 L124 600 L249 711 L373 600 L419 600 L274 750 L223 750 L79 600 Z " />
<glyph glyph-name="udieresis" unicode="&#xfc;" horiz-adv-x="502" d="M65 520 L65 172 C65 52 103 -10 236 -10 C308 -10 359 25 382 82 L382 0 L432 0 L432 520 L382 520 L382 144 C382 80 331 37 252 37 C145 37 115 83 115 172 L115 520 L65 520 Z M287 660 L287 600 L347 600 L347 660 L287 660 Z M210 600 L210 660 L150 660 L150 600 L210 600 Z " />
<glyph glyph-name="yacute" unicode="&#xfd;" horiz-adv-x="490" d="M227 -11 L224 -18 C187 -117 163 -145 119 -145 C108 -145 94 -143 79 -140 C70 -139 62 -137 53 -135 L53 -180 C62 -182 70 -184 79 -186 C94 -189 108 -191 119 -191 C178 -191 224 -146 269 -27 L480 520 L421 520 L253 62 L84 520 L28 520 L227 -11 Z M231 600 L277 600 L362 750 L296 750 L231 600 Z " />
<glyph glyph-name="thorn" unicode="&#xfe;" horiz-adv-x="582" d="M70 -250 L120 -250 L120 120 C153 31 222 -10 314 -10 C446 -10 532 98 532 260 C532 422 446 530 314 530 C222 530 153 489 120 400 L120 750 L70 750 L70 -250 Z M120 260 C120 417 191 487 297 487 C405 487 477 396 477 260 C477 124 405 33 297 33 C191 33 120 103 120 260 L120 260 Z " />
<glyph glyph-name="ydieresis" unicode="&#xff;" horiz-adv-x="490" d="M227 -11 L224 -18 C187 -117 163 -145 119 -145 C108 -145 94 -143 79 -140 C70 -139 62 -137 53 -135 L53 -180 C62 -182 70 -184 79 -186 C94 -189 108 -191 119 -191 C178 -191 224 -146 269 -27 L480 520 L421 520 L253 62 L84 520 L28 520 L227 -11 Z M293 660 L293 600 L353 600 L353 660 L293 660 Z M155 600 L215 600 L215 660 L155 660 L155 600 Z " />
<glyph glyph-name="Amacron" unicode="&#x100;" horiz-adv-x="724" d="M91 0 L180 216 L565 216 L654 0 L714 0 L403 750 L342 750 L28 0 L91 0 Z M373 681 L547 260 L198 260 L373 681 Z M234 865 L234 830 L514 830 C515 837 516 843 516 848 C517 856 517 865 514 865 L234 865 Z " />
<glyph glyph-name="amacron" unicode="&#x101;" horiz-adv-x="458" d="M238 266 C108 240 22 183 22 98 C22 33 93 -10 220 -10 C301 -10 380 22 407 126 L407 48 L407 0 L457 0 L457 358 C457 482 376 530 251 530 C156 530 81 487 60 423 L60 372 C83 440 158 485 251 485 C347 485 409 443 409 368 L409 366 C406 304 340 288 238 266 L238 266 Z M74 98 C74 162 144 205 252 228 C323 243 377 257 408 288 C408 259 408 224 407 183 C399 65 329 28 233 28 C191 28 74 35 74 98 L74 98 Z M391 600 L391 635 L111 635 L111 600 L391 600 Z " />
<glyph glyph-name="Abreve" unicode="&#x102;" horiz-adv-x="724" d="M91 0 L180 216 L565 216 L654 0 L714 0 L403 750 L342 750 L28 0 L91 0 Z M373 681 L547 260 L198 260 L373 681 Z M235 945 C235 869 290 820 374 820 C458 820 513 869 513 945 L476 945 C476 890 442 855 374 855 C313 855 272 890 272 945 L235 945 Z " />
<glyph glyph-name="abreve" unicode="&#x103;" horiz-adv-x="458" d="M238 266 C108 240 22 183 22 98 C22 33 93 -10 220 -10 C301 -10 380 22 407 126 L407 48 L407 0 L457 0 L457 358 C457 482 376 530 251 530 C156 530 81 487 60 423 L60 372 C83 440 158 485 251 485 C347 485 409 443 409 368 L409 366 C406 304 340 288 238 266 L238 266 Z M74 98 C74 162 144 205 252 228 C323 243 377 257 408 288 C408 259 408 224 407 183 C399 65 329 28 233 28 C191 28 74 35 74 98 L74 98 Z M112 715 C112 639 167 590 251 590 C335 590 390 639 390 715 L353 715 C353 660 312 625 251 625 C190 625 149 660 149 715 L112 715 Z " />
<glyph glyph-name="Aogonek" unicode="&#x104;" horiz-adv-x="724" d="M91 0 L180 216 L565 216 L654 0 L685 0 C658 -24 623 -69 623 -99 C630 -163 663 -206 724 -206 C759 -206 789 -195 804 -179 L799 -150 C787 -165 758 -174 727 -174 C680 -174 651 -142 651 -94 C651 -59 694 -11 714 0 L403 750 L342 750 L28 0 L91 0 Z M373 681 L547 260 L198 260 L373 681 Z " />
<glyph glyph-name="aogonek" unicode="&#x105;" horiz-adv-x="458" d="M408 288 C408 264 408 236 407 204 C407 69 333 28 233 28 C191 28 74 35 74 98 C74 162 144 205 252 228 C323 243 377 257 408 288 L408 288 Z M457 0 L457 358 C457 482 376 530 251 530 C156 530 81 487 60 423 L60 372 C83 440 158 485 251 485 C347 485 409 443 409 368 L409 366 C406 304 340 288 238 266 C108 240 22 183 22 98 C22 33 93 -10 220 -10 C301 -10 380 22 407 126 L407 48 L407 2 C377 -23 337 -69 337 -98 C337 -163 377 -206 438 -206 C473 -206 503 -195 518 -179 L513 -150 C501 -165 472 -174 441 -174 C394 -174 365 -142 365 -93 C365 -59 408 -15 427 -1 L457 0 Z " />
<glyph glyph-name="Cacute" unicode="&#x106;" horiz-adv-x="710" d="M690 173 C655 92 541 38 411 38 C243 38 131 193 131 375 C131 557 243 712 411 712 C531 712 645 658 690 578 L690 643 C650 713 537 760 411 760 C207 760 71 583 71 375 C71 167 207 -10 411 -10 C548 -10 658 37 690 106 L690 173 Z M358 830 L403 830 L488 980 L423 980 L358 830 Z " />
<glyph glyph-name="cacute" unicode="&#x107;" horiz-adv-x="545" d="M515 136 C486 73 416 33 320 33 C200 33 122 103 122 260 C122 416 204 484 312 484 C419 484 489 432 515 387 L515 442 C491 482 424 525 312 525 C175 525 67 444 67 260 C67 73 168 -10 320 -10 C417 -10 490 25 515 81 L515 136 Z M289 600 L335 600 L420 750 L354 750 L289 600 Z " />
<glyph glyph-name="Ccircumflex" unicode="&#x108;" horiz-adv-x="710" d="M690 173 C655 92 541 38 411 38 C243 38 131 193 131 375 C131 557 243 712 411 712 C531 712 645 658 690 578 L690 643 C650 713 537 760 411 760 C207 760 71 583 71 375 C71 167 207 -10 411 -10 C548 -10 658 37 690 106 L690 173 Z M381 941 L505 830 L551 830 L406 980 L355 980 L211 830 L256 830 L381 941 Z " />
<glyph glyph-name="Cdotaccent" unicode="&#x10a;" horiz-adv-x="710" d="M690 173 C655 92 541 38 411 38 C243 38 131 193 131 375 C131 557 243 712 411 712 C531 712 645 658 690 578 L690 643 C650 713 537 760 411 760 C207 760 71 583 71 375 C71 167 207 -10 411 -10 C548 -10 658 37 690 106 L690 173 Z M351 830 L411 830 L411 890 L351 890 L351 830 Z " />
<glyph glyph-name="cdotaccent" unicode="&#x10b;" horiz-adv-x="545" d="M515 136 C486 73 416 33 320 33 C200 33 122 103 122 260 C122 416 204 484 312 484 C419 484 489 432 515 387 L515 442 C491 482 424 525 312 525 C175 525 67 444 67 260 C67 73 168 -10 320 -10 C417 -10 490 25 515 81 L515 136 Z M282 600 L342 600 L342 660 L282 660 L282 600 Z " />
<glyph glyph-name="Ccaron" unicode="&#x10c;" horiz-adv-x="710" d="M690 173 C655 92 541 38 411 38 C243 38 131 193 131 375 C131 557 243 712 411 712 C531 712 645 658 690 578 L690 643 C650 713 537 760 411 760 C207 760 71 583 71 375 C71 167 207 -10 411 -10 C548 -10 658 37 690 106 L690 173 Z M381 869 L256 980 L211 980 L355 830 L406 830 L551 980 L505 980 L381 869 Z " />
<glyph glyph-name="ccaron" unicode="&#x10d;" horiz-adv-x="545" d="M515 136 C486 73 416 33 320 33 C200 33 122 103 122 260 C122 416 204 484 312 484 C419 484 489 432 515 387 L515 442 C491 482 424 525 312 525 C175 525 67 444 67 260 C67 73 168 -10 320 -10 C417 -10 490 25 515 81 L515 136 Z M312 639 L188 750 L142 750 L287 600 L337 600 L482 750 L436 750 L312 639 Z " />
<glyph glyph-name="Dcaron" unicode="&#x10e;" horiz-adv-x="764" d="M349 0 C593 0 709 122 709 375 C709 624 578 750 319 750 L105 750 L105 0 L349 0 L349 0 Z M161 705 L321 705 C538 705 649 595 649 375 C649 150 552 45 345 45 L161 45 L161 705 Z M207 980 L352 830 L402 830 L547 980 L501 980 L377 869 L253 980 L207 980 Z " />
<glyph glyph-name="dcaron" unicode="&#x10f;" horiz-adv-x="561" d="M67 260 C67 98 145 -10 265 -10 C348 -10 410 41 441 128 L441 0 L491 0 L491 750 L441 750 L441 392 C410 479 348 530 265 530 C145 530 67 422 67 260 L67 260 Z M282 33 C186 33 122 124 122 260 C122 396 186 487 282 487 C377 487 441 396 441 260 C441 124 377 33 282 33 L282 33 Z M530 610 L567 610 L595 760 L541 760 L530 610 Z " />
<glyph glyph-name="Dcroat" unicode="&#x110;" horiz-adv-x="764" d="M105 357 L105 0 L349 0 C593 0 709 122 709 375 C709 624 578 750 319 750 L105 750 L105 393 L25 393 L25 357 L105 357 Z M377 357 L377 393 L161 393 L161 705 L321 705 C538 705 649 595 649 375 C649 150 552 45 345 45 L161 45 L161 357 L377 357 Z " />
<glyph glyph-name="dslash" unicode="&#x111;" horiz-adv-x="561" d="M67 260 C67 98 145 -10 265 -10 C348 -10 410 41 441 128 L441 0 L491 0 L491 622 L568 622 L568 658 L491 658 L491 750 L441 750 L441 658 L265 658 L265 622 L441 622 L441 392 C410 479 348 530 265 530 C145 530 67 422 67 260 L67 260 Z M282 33 C186 33 122 124 122 260 C122 396 186 487 282 487 C377 487 441 396 441 260 C441 124 377 33 282 33 L282 33 Z " />
<glyph glyph-name="Emacron" unicode="&#x112;" horiz-adv-x="586" d="M536 48 L161 48 L161 364 L501 364 L501 410 L161 410 L161 702 L521 702 L521 750 L105 750 L105 0 L536 0 L536 48 Z M453 830 C455 837 456 843 457 848 C460 856 460 865 453 865 L380 865 L173 865 L173 830 L453 830 Z " />
<glyph glyph-name="emacron" unicode="&#x113;" horiz-adv-x="551" d="M67 260 C67 73 174 -10 335 -10 C431 -10 490 32 521 92 L521 144 C486 81 430 35 335 35 C210 35 129 100 122 245 L528 245 C536 416 466 530 308 530 C164 530 67 447 67 260 L67 260 Z M122 278 C129 423 200 489 308 489 C431 489 483 392 478 245 L478 278 L122 278 Z M448 600 L448 635 L168 635 L168 600 L448 600 Z " />
<glyph glyph-name="Ebreve" unicode="&#x114;" horiz-adv-x="586" d="M536 48 L161 48 L161 364 L501 364 L501 410 L161 410 L161 702 L521 702 L521 750 L105 750 L105 0 L536 0 L536 48 Z M174 945 C174 869 229 820 313 820 C397 820 452 869 452 945 L415 945 C415 890 385 855 313 855 C258 855 211 886 211 945 L174 945 Z " />
<glyph glyph-name="ebreve" unicode="&#x115;" horiz-adv-x="551" d="M67 260 C67 73 174 -10 335 -10 C431 -10 490 32 521 92 L521 144 C486 81 430 35 335 35 C210 35 129 100 122 245 L528 245 C536 416 466 530 308 530 C164 530 67 447 67 260 L67 260 Z M122 278 C129 423 200 489 308 489 C431 489 483 392 478 245 L478 278 L122 278 L122 278 Z M169 715 C169 639 224 590 308 590 C392 590 447 639 447 715 L410 715 C410 660 369 625 308 625 C247 625 206 660 206 715 L169 715 L169 715 Z " />
<glyph glyph-name="Edotaccent" unicode="&#x116;" horiz-adv-x="586" d="M105 0 L536 0 L536 48 L161 48 L161 364 L501 364 L501 410 L161 410 L161 702 L521 702 L521 750 L105 750 L105 0 Z M283 890 L283 830 L343 830 L343 890 L283 890 Z " />
<glyph glyph-name="edotaccent" unicode="&#x117;" horiz-adv-x="551" d="M67 260 C67 73 174 -10 335 -10 C431 -10 490 32 521 92 L521 144 C486 81 430 35 335 35 C210 35 129 100 122 245 L528 245 C536 416 466 530 308 530 C164 530 67 447 67 260 L67 260 Z M122 278 C129 423 200 489 308 489 C431 489 483 392 478 245 L478 278 L122 278 Z M338 600 L338 660 L278 660 L278 600 L338 600 Z " />
<glyph glyph-name="Eogonek" unicode="&#x118;" horiz-adv-x="586" d="M105 0 L304 0 C275 -27 237 -70 237 -98 C248 -163 277 -206 338 -206 C373 -206 403 -195 418 -179 L413 -150 C401 -165 372 -174 341 -174 C294 -174 265 -142 265 -93 C265 -59 308 -11 328 0 L536 0 L536 48 L161 48 L161 364 L501 364 L501 410 L161 410 L161 702 L521 702 L521 750 L105 750 L105 0 Z " />
<glyph glyph-name="eogonek" unicode="&#x119;" horiz-adv-x="551" d="M67 260 C67 73 174 -10 335 -10 C370 -10 398 -5 425 6 C402 -21 384 -53 384 -80 C384 -156 424 -206 485 -206 C520 -206 550 -195 565 -179 L560 -150 C548 -165 519 -174 488 -174 C441 -174 412 -135 412 -75 C412 -31 455 23 475 34 L475 35 C494 50 510 69 521 92 L521 144 C486 81 430 35 335 35 C210 35 129 100 122 245 L528 245 C536 416 466 530 308 530 C164 530 67 447 67 260 L67 260 Z M122 278 C129 423 200 489 308 489 C431 489 483 392 478 245 L478 278 L122 278 Z " />
<glyph glyph-name="Ecaron" unicode="&#x11a;" horiz-adv-x="586" d="M105 0 L536 0 L536 48 L161 48 L161 364 L501 364 L501 410 L161 410 L161 702 L521 702 L521 750 L105 750 L105 0 Z M338 830 L483 980 L437 980 L313 869 L189 980 L143 980 L288 830 L338 830 Z " />
<glyph glyph-name="ecaron" unicode="&#x11b;" horiz-adv-x="551" d="M67 260 C67 73 174 -10 335 -10 C431 -10 490 32 521 92 L521 144 C486 81 430 35 335 35 C210 35 129 100 122 245 L528 245 C536 416 466 530 308 530 C164 530 67 447 67 260 L67 260 Z M122 278 C129 423 200 489 308 489 C431 489 483 392 478 245 L478 278 L122 278 L122 278 Z M283 600 L333 600 L478 750 L432 750 L308 639 L184 750 L138 750 L283 600 Z " />
<glyph glyph-name="Gcircumflex" unicode="&#x11c;" horiz-adv-x="774" d="M428 760 C214 760 71 607 71 375 C71 143 214 -10 428 -10 C541 -10 650 34 729 99 L729 432 L373 432 L373 384 L673 384 L673 127 C609 74 520 38 428 38 C250 38 131 173 131 375 C131 578 250 712 428 712 C518 712 615 647 671 550 L714 586 C655 690 539 760 428 760 L428 760 Z M258 830 L304 830 L428 941 L552 830 L598 830 L453 980 L403 980 L258 830 Z " />
<glyph glyph-name="Gbreve" unicode="&#x11e;" horiz-adv-x="774" d="M428 760 C214 760 71 607 71 375 C71 143 214 -10 428 -10 C541 -10 650 34 729 99 L729 432 L373 432 L373 384 L673 384 L673 127 C609 74 520 38 428 38 C250 38 131 173 131 375 C131 578 250 712 428 712 C518 712 615 647 671 550 L714 586 C655 690 539 760 428 760 L428 760 Z M289 945 C289 869 344 820 428 820 C512 820 567 869 567 945 L530 945 C530 890 489 855 428 855 C367 855 326 890 326 945 L289 945 L289 945 Z " />
<glyph glyph-name="gbreve" unicode="&#x11f;" horiz-adv-x="551" d="M67 260 C67 73 144 0 260 0 C340 0 400 49 431 129 L431 38 C431 -63 377 -131 261 -131 C163 -131 113 -102 81 -94 L81 -152 C106 -159 163 -179 262 -179 C405 -179 481 -90 481 46 L481 520 L431 520 L431 396 C400 480 340 530 260 530 C144 530 67 454 67 260 L67 260 Z M277 43 C184 43 122 104 122 260 C122 423 184 487 277 487 C369 487 431 396 431 260 C431 129 369 43 277 43 L277 43 Z M135 715 C135 639 190 590 274 590 C358 590 413 639 413 715 L376 715 C376 660 335 625 274 625 C213 625 172 660 172 715 L135 715 L135 715 Z " />
<glyph glyph-name="Gdotaccent" unicode="&#x120;" horiz-adv-x="774" d="M428 760 C214 760 71 607 71 375 C71 143 214 -10 428 -10 C541 -10 650 34 729 99 L729 432 L373 432 L373 384 L673 384 L673 127 C609 74 520 38 428 38 C250 38 131 173 131 375 C131 578 250 712 428 712 C518 712 615 647 671 550 L714 586 C655 690 539 760 428 760 L428 760 Z M458 830 L458 890 L398 890 L398 830 L458 830 Z " />
<glyph glyph-name="gdotaccent" unicode="&#x121;" horiz-adv-x="551" d="M67 260 C67 73 144 0 260 0 C340 0 400 49 431 129 L431 38 C431 -63 377 -131 261 -131 C163 -131 113 -102 81 -94 L81 -152 C106 -159 163 -179 262 -179 C405 -179 481 -90 481 46 L481 520 L431 520 L431 396 C400 480 340 530 260 530 C144 530 67 454 67 260 L67 260 Z M122 260 C122 423 184 487 277 487 C369 487 431 396 431 260 C431 129 369 43 277 43 C184 43 122 104 122 260 L122 260 Z M244 660 L244 600 L304 600 L304 660 L244 660 Z " />
<glyph glyph-name="Hcircumflex" unicode="&#x124;" horiz-adv-x="706" d="M105 750 L105 0 L161 0 L161 371 L565 371 L565 0 L621 0 L621 750 L565 750 L565 419 L161 419 L161 750 L105 750 Z M193 830 L239 830 L363 941 L487 830 L533 830 L388 980 L338 980 L193 830 Z " />
<glyph glyph-name="Itilde" unicode="&#x128;" horiz-adv-x="227" d="M86 0 L142 0 L142 750 L86 750 L86 0 Z M34 830 C34 869 47 894 68 894 C94 894 131 820 164 820 C204 820 231 860 231 923 L194 923 C194 884 181 859 161 859 C130 877 97 936 64 933 C24 933 -3 893 -3 830 L34 830 Z " />
<glyph glyph-name="itilde" unicode="&#x129;" horiz-adv-x="262" d="M142 520 L142 0 L192 0 L192 520 L142 520 Z M87 600 C87 639 100 664 120 664 C147 664 185 590 217 590 C257 590 284 630 284 693 L247 693 C247 654 234 629 214 629 C182 651 148 703 117 703 C78 704 50 663 50 600 L87 600 Z " />
<glyph glyph-name="Imacron" unicode="&#x12a;" horiz-adv-x="227" d="M142 0 L142 750 L86 750 L86 0 L142 0 Z M-26 830 L254 830 C253 837 252 843 251 848 C250 856 250 865 254 865 L-26 865 L-26 830 Z " />
<glyph glyph-name="imacron" unicode="&#x12b;" horiz-adv-x="262" d="M142 0 L192 0 L192 520 L142 520 L142 0 Z M27 600 L307 600 L307 635 L235 635 L27 635 L27 600 Z " />
<glyph glyph-name="Ibreve" unicode="&#x12c;" horiz-adv-x="227" d="M142 0 L142 750 L86 750 L86 0 L142 0 Z M-25 945 C-25 869 30 820 114 820 C198 820 253 869 253 945 L216 945 C216 892 166 855 114 855 C53 855 12 890 12 945 L-25 945 Z " />
<glyph glyph-name="ibreve" unicode="&#x12d;" horiz-adv-x="262" d="M142 0 L192 0 L192 520 L142 520 L142 0 Z M28 715 C28 639 83 590 167 590 C251 590 306 639 306 715 L269 715 C269 664 233 625 177 625 C120 625 65 650 65 715 L28 715 Z " />
<glyph glyph-name="Idot" unicode="&#x130;" horiz-adv-x="227" d="M142 0 L142 750 L86 750 L86 0 L142 0 Z M84 830 L144 830 L144 890 L84 890 L84 830 Z " />
<glyph glyph-name="dotlessi" unicode="&#x131;" horiz-adv-x="262" d="M142 0 L192 0 L192 520 L142 520 L142 0 Z " />
<glyph glyph-name="Jcircumflex" unicode="&#x134;" horiz-adv-x="489" d="M79 73 L80 42 C112 2 139 -10 202 -10 C334 -10 404 81 404 220 L404 750 L348 750 L348 220 C348 113 298 44 202 44 C138 44 119 56 80 95 L79 89 L79 73 Z M376 941 L500 830 L546 830 L401 980 L351 980 L206 830 L252 830 L376 941 Z " />
<glyph glyph-name="Lacute" unicode="&#x139;" horiz-adv-x="497" d="M467 24 C468 32 468 38 468 42 C468 44 468 46 467 48 L142 48 L142 750 L86 750 L86 0 L467 0 L467 24 Z M137 830 L222 980 L156 980 L91 830 L137 830 Z " />
<glyph glyph-name="lacute" unicode="&#x13a;" horiz-adv-x="222" d="M152 0 L152 750 L102 750 L102 0 L152 0 Z M92 790 L137 790 L222 940 L157 940 L92 790 Z " />
<glyph glyph-name="Lcaron" unicode="&#x13d;" horiz-adv-x="497" d="M86 750 L86 0 L467 0 L467 48 L142 48 L142 750 L86 750 Z M266 610 L302 610 L331 760 L277 760 L266 610 Z " />
<glyph glyph-name="lcaron" unicode="&#x13e;" horiz-adv-x="222" d="M152 0 L152 750 L102 750 L102 0 L152 0 Z M202 760 L191 610 L228 610 L256 760 L202 760 Z " />
<glyph glyph-name="Lslash" unicode="&#x141;" horiz-adv-x="497" d="M6 306 L86 333 L86 0 L467 0 L467 48 L142 48 L142 352 L304 406 L304 444 L142 390 L142 750 L86 750 L86 371 L6 344 L6 306 Z " />
<glyph glyph-name="lslash" unicode="&#x142;" horiz-adv-x="222" d="M232 406 L232 444 L152 406 L152 750 L102 750 L102 382 L22 344 L22 306 L102 344 L102 0 L152 0 L152 368 L232 406 Z " />
<glyph glyph-name="Nacute" unicode="&#x143;" horiz-adv-x="674" d="M104 0 L163 0 L163 641 L510 0 L589 0 L589 750 L530 750 L530 78 L166 750 L104 750 L104 0 Z M224 830 L269 830 L354 980 L289 980 L224 830 Z " />
<glyph glyph-name="nacute" unicode="&#x144;" horiz-adv-x="506" d="M115 0 L115 348 C115 427 172 478 260 478 C340 478 391 423 391 315 L391 0 L441 0 L441 315 C441 455 377 525 280 525 C197 525 138 482 115 413 L115 520 L65 520 L65 0 L115 0 Z M230 600 L276 600 C293 628 307 653 320 675 C341 712 363 750 361 750 L295 750 L230 600 Z " />
<glyph glyph-name="Ncaron" unicode="&#x147;" horiz-adv-x="674" d="M104 0 L163 0 L163 641 L510 0 L589 0 L589 750 L530 750 L530 78 L166 750 L104 750 L104 0 Z M321 830 L372 830 L517 980 L471 980 L347 869 L222 980 L177 980 L321 830 Z " />
<glyph glyph-name="ncaron" unicode="&#x148;" horiz-adv-x="506" d="M115 0 L115 348 C115 427 172 478 260 478 C340 478 391 423 391 315 L391 0 L441 0 L441 315 C441 455 377 525 280 525 C197 525 138 482 115 413 L115 520 L65 520 L65 0 L115 0 Z M83 750 L228 600 L278 600 L423 750 L377 750 L253 639 L129 750 L83 750 Z " />
<glyph glyph-name="Omacron" unicode="&#x14c;" horiz-adv-x="814" d="M76 375 C76 143 213 -10 418 -10 C623 -10 759 143 759 375 C759 594 613 760 418 760 C223 760 76 594 76 375 L76 375 Z M136 375 C136 567 257 712 418 712 C578 712 699 567 699 375 C699 173 587 38 418 38 C250 38 136 173 136 375 L136 375 Z M278 830 L558 830 L558 865 L278 865 L278 830 Z " />
<glyph glyph-name="omacron" unicode="&#x14d;" horiz-adv-x="590" d="M67 260 C67 98 140 -10 304 -10 C445 -10 540 73 540 260 C540 422 467 530 304 530 C162 530 67 447 67 260 L67 260 Z M122 260 C122 419 195 491 304 491 C429 491 485 399 485 260 C485 101 413 29 304 29 C178 29 122 121 122 260 L122 260 Z M164 600 L444 600 L444 635 L164 635 L164 600 Z " />
<glyph glyph-name="Obreve" unicode="&#x14e;" horiz-adv-x="814" d="M76 375 C76 143 213 -10 418 -10 C623 -10 759 143 759 375 C759 594 613 760 418 760 C223 760 76 594 76 375 L76 375 Z M136 375 C136 567 257 712 418 712 C578 712 699 567 699 375 C699 173 587 38 418 38 C250 38 136 173 136 375 L136 375 Z M279 945 C279 869 334 820 418 820 C502 820 557 869 557 945 L520 945 C520 892 482 855 423 855 C364 855 316 881 316 945 L279 945 Z " />
<glyph glyph-name="obreve" unicode="&#x14f;" horiz-adv-x="590" d="M67 260 C67 98 140 -10 304 -10 C445 -10 540 73 540 260 C540 422 467 530 304 530 C162 530 67 447 67 260 L67 260 Z M122 260 C122 419 195 491 304 491 C429 491 485 399 485 260 C485 101 413 29 304 29 C178 29 122 121 122 260 L122 260 Z M165 715 C165 639 220 590 304 590 C388 590 443 639 443 715 L406 715 C406 660 365 625 304 625 C240 625 202 660 202 715 L165 715 Z " />
<glyph glyph-name="Racute" unicode="&#x154;" horiz-adv-x="624" d="M161 0 L161 335 L374 335 L538 0 L602 0 L437 337 C538 350 589 413 589 525 C589 675 525 750 398 750 L105 750 L105 0 L161 0 Z M161 380 L161 705 L396 705 C487 705 533 645 533 525 C533 428 489 380 400 380 L161 380 Z M370 830 L455 980 L389 980 L324 830 L370 830 Z " />
<glyph glyph-name="racute" unicode="&#x155;" horiz-adv-x="420" d="M70 520 L70 0 L120 0 L120 308 C120 409 167 478 311 478 C336 478 358 471 374 463 C383 458 392 453 400 448 L400 494 C375 517 351 525 310 525 C198 525 141 475 120 394 L120 520 L70 520 Z M258 600 L343 750 L277 750 L212 600 L258 600 Z " />
<glyph glyph-name="Rcaron" unicode="&#x158;" horiz-adv-x="624" d="M105 0 L161 0 L161 335 L374 335 L538 0 L602 0 L437 337 C538 350 589 413 589 525 C589 675 525 750 398 750 L105 750 L105 0 Z M396 705 C487 705 533 645 533 525 C533 428 489 380 400 380 L161 380 L161 705 L396 705 Z M177 980 L322 830 L372 830 L517 980 L471 980 L347 869 L223 980 L177 980 Z " />
<glyph glyph-name="rcaron" unicode="&#x159;" horiz-adv-x="420" d="M120 0 L120 308 C120 409 167 478 311 478 C336 478 358 471 374 463 C383 458 392 453 400 448 L400 494 C375 517 351 525 310 525 C198 525 141 475 120 394 L120 520 L70 520 L70 0 L120 0 Z M65 750 L210 600 L260 600 L405 750 L359 750 L235 639 L111 750 L65 750 Z " />
<glyph glyph-name="Sacute" unicode="&#x15a;" horiz-adv-x="521" d="M28 111 C75 39 152 -10 255 -10 C407 -10 486 78 486 209 C486 312 410 385 261 414 C162 433 113 483 113 554 C113 646 169 708 252 708 C303 708 370 669 439 592 L439 653 C375 725 307 760 252 760 C134 760 56 675 56 547 C56 451 121 382 246 358 C367 334 430 280 430 208 C430 108 372 41 255 41 C159 41 72 91 27 188 L28 111 Z M211 830 L256 830 L341 980 L276 980 L211 830 Z " />
<glyph glyph-name="sacute" unicode="&#x15b;" horiz-adv-x="451" d="M53 96 C77 35 148 -5 234 -5 C346 -5 421 61 421 161 C421 229 364 276 251 287 C159 295 112 327 112 372 C112 440 166 486 246 486 C318 486 381 449 408 390 L408 439 C384 491 320 525 246 525 C137 525 64 461 64 368 C64 300 123 254 239 243 C327 235 372 204 372 157 C372 84 318 36 234 36 C152 36 80 83 53 152 L53 96 Z M223 600 L269 600 L354 750 L288 750 L223 600 Z " />
<glyph glyph-name="Scircumflex" unicode="&#x15c;" horiz-adv-x="521" d="M28 111 C75 39 152 -10 255 -10 C407 -10 486 78 486 209 C486 312 410 385 261 414 C162 433 113 483 113 554 C113 646 169 708 252 708 C303 708 370 669 439 592 L439 653 C375 725 307 760 252 760 C134 760 56 675 56 547 C56 451 121 382 246 358 C367 334 430 280 430 208 C430 108 372 41 255 41 C159 41 72 91 27 188 L28 111 Z M234 941 L358 830 L404 830 L259 980 L208 980 L64 830 L109 830 L234 941 Z " />
<glyph glyph-name="Scedilla" unicode="&#x15e;" horiz-adv-x="521" d="M28 111 C72 43 143 -3 238 -10 L212 -103 L228 -112 C231 -108 249 -96 274 -96 C303 -96 323 -115 323 -146 C323 -185 298 -199 267 -199 C246 -199 222 -193 205 -182 L205 -206 C228 -213 255 -219 279 -219 C318 -219 351 -203 351 -146 C351 -101 322 -71 279 -71 C255 -71 242 -75 235 -88 L256 -10 C408 -10 486 78 486 209 C486 312 410 385 261 414 C162 433 113 483 113 554 C113 646 169 708 252 708 C303 708 370 669 439 592 L439 653 C375 725 307 760 252 760 C134 760 56 675 56 547 C56 451 121 382 246 358 C367 334 430 280 430 208 C430 108 372 41 255 41 C159 41 72 91 27 188 L28 111 Z " />
<glyph glyph-name="scedilla" unicode="&#x15f;" horiz-adv-x="451" d="M53 96 C76 39 139 0 218 -5 L191 -103 L207 -112 C210 -101 228 -96 253 -96 C282 -96 302 -115 302 -146 C302 -177 283 -198 252 -198 C220 -198 209 -196 184 -182 L184 -212 C207 -220 233 -227 257 -227 C297 -227 330 -209 330 -146 C330 -101 301 -71 258 -71 C234 -71 221 -75 214 -88 L236 -5 C347 -5 421 63 421 161 C421 229 364 276 251 287 C159 295 112 327 112 372 C112 440 166 486 246 486 C318 486 381 449 408 390 L408 439 C384 491 320 525 246 525 C137 525 64 461 64 368 C64 300 123 254 239 243 C327 235 372 204 372 157 C372 84 318 36 234 36 C152 36 80 83 53 152 L53 96 L53 96 Z " />
<glyph glyph-name="Scaron" unicode="&#x160;" horiz-adv-x="521" d="M28 111 C75 39 152 -10 255 -10 C407 -10 486 78 486 209 C486 312 410 385 261 414 C162 433 113 483 113 554 C113 646 169 708 252 708 C303 708 370 669 439 592 L439 653 C375 725 307 760 252 760 C134 760 56 675 56 547 C56 451 121 382 246 358 C367 334 430 280 430 208 C430 108 372 41 255 41 C159 41 72 91 27 188 L28 111 Z M234 869 L109 980 L64 980 L208 830 L259 830 L404 980 L358 980 L234 869 Z " />
<glyph glyph-name="scaron" unicode="&#x161;" horiz-adv-x="451" d="M53 96 C77 35 148 -5 234 -5 C346 -5 421 61 421 161 C421 229 364 276 251 287 C159 295 112 327 112 372 C112 440 166 486 246 486 C318 486 381 449 408 390 L408 439 C384 491 320 525 246 525 C137 525 64 461 64 368 C64 300 123 254 239 243 C327 235 372 204 372 157 C372 84 318 36 234 36 C152 36 80 83 53 152 L53 96 Z M246 639 L122 750 L76 750 L221 600 L271 600 L416 750 L370 750 L246 639 Z " />
<glyph glyph-name="Tcaron" unicode="&#x164;" horiz-adv-x="595" d="M10 702 L270 702 L270 0 L325 0 L325 702 L585 702 L585 750 L10 750 L10 702 Z M273 830 L323 830 L468 980 L422 980 L298 869 L174 980 L128 980 L273 830 Z " />
<glyph glyph-name="tcaron" unicode="&#x165;" horiz-adv-x="395" d="M10 520 L10 474 L122 474 L122 167 C122 54 173 -10 293 -10 C314 -10 343 -8 370 11 L370 55 C346 44 328 35 307 35 C199 35 172 77 172 167 L172 474 L365 474 L365 520 L172 520 L172 697 L122 655 L122 520 L10 520 Z M211 610 L248 610 L276 760 L222 760 L211 610 Z " />
<glyph glyph-name="Utilde" unicode="&#x168;" horiz-adv-x="660" d="M98 293 C98 92 179 -10 339 -10 C499 -10 580 92 580 292 L580 750 L521 750 L521 303 C521 130 460 44 339 44 C216 44 154 131 154 302 L154 750 L98 750 L98 293 L98 293 Z M289 923 C246 923 222 883 222 820 L259 820 C259 859 272 884 292 884 C319 884 357 810 389 810 C429 810 456 850 456 913 L419 913 C419 874 406 849 386 849 C346 873 321 923 289 923 L289 923 Z " />
<glyph glyph-name="utilde" unicode="&#x169;" horiz-adv-x="502" d="M65 172 C65 52 103 -10 236 -10 C308 -10 359 25 382 82 L382 0 L432 0 L432 520 L382 520 L382 144 C382 80 331 37 252 37 C145 37 115 83 115 172 L115 520 L65 520 L65 172 L65 172 Z M199 703 C156 703 132 663 132 600 L169 600 C169 639 182 664 202 664 C229 664 267 590 299 590 C339 590 365 630 365 693 L329 693 C329 654 316 629 296 629 C254 653 231 703 199 703 L199 703 Z " />
<glyph glyph-name="Umacron" unicode="&#x16a;" horiz-adv-x="660" d="M98 750 L98 293 C98 92 179 -10 339 -10 C499 -10 580 92 580 292 L580 750 L521 750 L521 303 C521 130 460 44 339 44 C216 44 154 131 154 302 L154 750 L98 750 Z M199 820 L479 820 L479 855 L199 855 L199 820 Z " />
<glyph glyph-name="umacron" unicode="&#x16b;" horiz-adv-x="502" d="M65 172 C65 52 103 -10 236 -10 C308 -10 359 25 382 82 L382 0 L432 0 L432 520 L382 520 L382 144 C382 80 331 37 252 37 C145 37 115 83 115 172 L115 520 L65 520 L65 172 L65 172 Z M109 635 L109 600 L389 600 L389 635 L109 635 Z " />
<glyph glyph-name="Ubreve" unicode="&#x16c;" horiz-adv-x="660" d="M98 750 L98 293 C98 92 179 -10 339 -10 C499 -10 580 92 580 292 L580 750 L521 750 L521 303 C521 130 460 44 339 44 C216 44 154 131 154 302 L154 750 L98 750 Z M200 935 C200 859 255 810 339 810 C423 810 478 859 478 935 L441 935 C441 882 401 845 341 845 C284 845 237 872 237 935 L200 935 Z " />
<glyph glyph-name="ubreve" unicode="&#x16d;" horiz-adv-x="502" d="M65 520 L65 172 C65 52 103 -10 236 -10 C308 -10 359 25 382 82 L382 0 L432 0 L432 520 L382 520 L382 144 C382 80 331 37 252 37 C145 37 115 83 115 172 L115 520 L65 520 Z M109 715 C109 639 165 590 249 590 C333 590 388 639 388 715 L351 715 C351 662 313 625 254 625 C195 625 146 651 146 715 L109 715 L109 715 Z " />
<glyph glyph-name="Uring" unicode="&#x16e;" horiz-adv-x="660" d="M98 750 L98 293 C98 92 179 -10 339 -10 C499 -10 580 92 580 292 L580 750 L521 750 L521 303 C521 130 460 44 339 44 C216 44 154 131 154 302 L154 750 L98 750 Z M258 905 C258 848 285 820 339 820 C393 820 420 848 420 905 C420 960 390 990 339 990 C288 990 258 960 258 905 L258 905 Z M283 905 C283 944 302 967 339 967 C374 966 395 944 395 905 C395 864 376 843 339 843 C302 843 283 864 283 905 L283 905 Z " />
<glyph glyph-name="uring" unicode="&#x16f;" horiz-adv-x="502" d="M65 172 C65 52 103 -10 236 -10 C308 -10 359 25 382 82 L382 0 L432 0 L432 520 L382 520 L382 144 C382 80 331 37 252 37 C145 37 115 83 115 172 L115 520 L65 520 L65 172 L65 172 Z M249 770 C198 770 168 740 168 685 C168 628 195 600 249 600 C302 600 329 628 329 685 C329 740 300 770 249 770 L249 770 Z M249 623 C211 623 192 644 192 685 C192 724 210 747 249 747 C284 744 305 724 305 685 C305 644 286 623 249 623 L249 623 Z " />
<glyph glyph-name="Wcircumflex" unicode="&#x174;" horiz-adv-x="746" d="M31 750 L185 0 L238 0 L381 644 L524 0 L578 0 L736 750 L673 750 L550 125 L412 750 L348 750 L213 126 L91 750 L31 750 Z M259 830 L384 941 L508 830 L554 830 L409 980 L358 980 L214 830 L259 830 Z " />
<glyph glyph-name="Ycircumflex" unicode="&#x176;" horiz-adv-x="610" d="M289 330 L289 0 L345 0 L345 329 L600 750 L540 750 L316 377 L92 750 L35 750 L289 330 Z M148 830 L193 830 L318 941 L442 830 L488 830 L343 980 L292 980 L148 830 Z " />
<glyph glyph-name="Ydieresis" unicode="&#x178;" horiz-adv-x="610" d="M289 330 L289 0 L345 0 L345 329 L600 750 L540 750 L316 377 L92 750 L35 750 L289 330 Z M416 830 L416 890 L356 890 L356 830 L416 830 Z M219 890 L219 830 L279 830 L279 890 L219 890 Z " />
<glyph glyph-name="Zacute" unicode="&#x179;" horiz-adv-x="655" d="M610 0 L610 48 L110 48 L610 702 L610 750 L60 750 L60 702 L545 702 L45 48 L45 0 L610 0 Z M312 830 L358 830 L443 980 L377 980 L312 830 Z " />
<glyph glyph-name="zacute" unicode="&#x17a;" horiz-adv-x="460" d="M30 32 L30 0 L440 0 L440 41 L91 41 L424 488 L424 520 L45 520 L45 479 L361 479 L30 32 Z M265 600 L350 750 L285 750 L220 600 L265 600 Z " />
<glyph glyph-name="Zdotaccent" unicode="&#x17b;" horiz-adv-x="655" d="M610 0 L610 48 L110 48 L610 702 L610 750 L60 750 L60 702 L545 702 L45 48 L45 0 L610 0 Z M365 830 L365 890 L305 890 L305 830 L365 830 Z " />
<glyph glyph-name="zdotaccent" unicode="&#x17c;" horiz-adv-x="460" d="M30 32 L30 0 L440 0 L440 41 L91 41 L424 488 L424 520 L45 520 L45 479 L361 479 L30 32 Z M213 660 L213 600 L273 600 L273 660 L213 660 Z " />
<glyph glyph-name="Zcaron" unicode="&#x17d;" horiz-adv-x="655" d="M610 0 L610 48 L110 48 L610 702 L610 750 L60 750 L60 702 L545 702 L45 48 L45 0 L610 0 Z M310 830 L360 830 L505 980 L459 980 L335 869 L211 980 L165 980 L310 830 Z " />
<glyph glyph-name="zcaron" unicode="&#x17e;" horiz-adv-x="460" d="M30 0 L440 0 L440 41 L91 41 L424 488 L424 520 L45 520 L45 479 L361 479 L30 32 L30 0 Z M217 600 L268 600 L413 750 L367 750 L243 639 L118 750 L73 750 L217 600 Z " />
<glyph glyph-name="uni01EB" unicode="&#x1eb;" horiz-adv-x="754" d="M389 607 C212 607 78 474 78 298 C78 113 202 -10 389 -10 C432 -10 470 -4 505 8 L621 -80 L678 -77 L543 24 C640 73 699 170 699 298 C699 474 566 607 389 607 L389 607 Z M131 298 C131 450 241 564 389 564 C536 564 646 450 646 298 C646 181 592 94 501 55 L433 106 L380 103 L461 41 C438 36 414 33 389 33 C234 33 131 139 131 298 L131 298 Z " />
<glyph glyph-name="uni0226" unicode="&#x226;" horiz-adv-x="724" d="M91 0 L180 216 L565 216 L654 0 L714 0 L403 750 L342 750 L28 0 L91 0 Z M373 681 L547 260 L198 260 L373 681 Z M404 830 L404 890 L344 890 L344 830 L404 830 Z " />
<glyph glyph-name="uni0262" unicode="&#x262;" horiz-adv-x="715" d="M396 607 C201 607 73 482 73 298 C73 113 201 -10 396 -10 C505 -10 605 25 670 81 L669 325 L669 346 L346 346 L346 303 L619 303 L619 107 C566 63 485 33 396 33 C234 33 126 139 126 298 C126 458 234 564 396 564 C471 564 560 498 616 399 L654 432 C592 537 491 607 396 607 L396 607 Z " />
<glyph glyph-name="uni026A" unicode="&#x26a;" horiz-adv-x="224" d="M139 0 L139 597 L89 597 L89 0 L139 0 Z " />
<glyph glyph-name="uni0274" unicode="&#x274;" horiz-adv-x="588" d="M106 0 L158 0 L158 503 L438 0 L503 0 L503 597 L451 597 L451 67 L158 593 L158 597 L106 597 L106 0 Z " />
<glyph glyph-name="uni0280" unicode="&#x280;" horiz-adv-x="564" d="M106 0 L157 0 L157 270 L322 270 L483 0 L541 0 L378 272 C479 281 529 330 529 418 C529 537 467 597 343 597 L106 597 L106 0 Z M157 311 L157 556 L341 556 C432 556 478 510 478 418 C478 347 434 311 345 311 L157 311 Z " />
<glyph glyph-name="uni028F" unicode="&#x28f;" horiz-adv-x="550" d="M262 330 L262 0 L312 0 L312 329 L540 597 L480 597 L286 368 L92 597 L35 597 L262 330 Z " />
<glyph glyph-name="uni0299" unicode="&#x299;" horiz-adv-x="643" d="M106 0 L363 0 C539 0 608 52 608 185 C608 268 539 324 431 335 C482 346 559 374 559 438 C559 552 490 597 314 597 L106 597 L106 0 Z M157 308 L265 308 C318 308 371 307 366 307 C479 307 555 258 555 185 C555 81 497 41 348 41 L157 41 L157 308 Z M157 347 L157 556 L316 556 C454 556 507 523 507 437 C507 385 437 350 333 350 L157 347 Z " />
<glyph glyph-name="uni029C" unicode="&#x29c;" horiz-adv-x="627" d="M106 597 L106 0 L157 0 L157 282 L492 282 L492 0 L542 0 L542 597 L492 597 L492 324 L157 324 L157 597 L106 597 Z " />
<glyph glyph-name="uni029F" unicode="&#x29f;" horiz-adv-x="434" d="M89 597 L89 0 L404 0 L404 43 L139 43 L139 597 L89 597 Z " />
<glyph glyph-name="circumflex" unicode="&#x2c6;" horiz-adv-x="340" d="M170 711 L294 600 L340 600 L195 750 L145 750 L0 600 L46 600 L170 711 Z " />
<glyph glyph-name="caron" unicode="&#x2c7;" horiz-adv-x="340" d="M170 639 L46 750 L0 750 L145 600 L195 600 L340 750 L294 750 L170 639 Z " />
<glyph glyph-name="uni02C9" unicode="&#x2c9;" horiz-adv-x="340" d="M30 600 L310 600 L310 635 L30 635 L30 600 Z " />
<glyph glyph-name="breve" unicode="&#x2d8;" horiz-adv-x="340" d="M31 715 C31 639 86 590 170 590 C254 590 309 639 309 715 L272 715 C272 660 231 625 170 625 C109 625 68 660 68 715 L31 715 Z " />
<glyph glyph-name="dotaccent" unicode="&#x2d9;" horiz-adv-x="340" d="M140 600 L200 600 L200 660 L140 660 L140 600 Z " />
<glyph glyph-name="ring" unicode="&#x2da;" horiz-adv-x="340" d="M89 685 C89 628 116 600 170 600 C224 600 251 628 251 685 C251 740 221 770 170 770 C119 770 89 740 89 685 L89 685 Z M114 685 C114 724 135 747 170 747 C205 747 226 724 226 685 C226 644 207 623 170 623 C133 623 114 644 114 685 L114 685 Z " />
<glyph glyph-name="uni1D00" unicode="&#x1d00;" horiz-adv-x="664" d="M30 0 L85 0 L165 168 L522 168 L602 0 L654 0 L370 597 L316 597 L30 0 Z M344 545 L504 207 L183 207 L344 545 Z " />
<glyph glyph-name="uni1D04" unicode="&#x1d04;" horiz-adv-x="652" d="M632 168 C597 87 495 33 379 33 C227 33 126 155 126 298 C126 442 227 564 379 564 C484 564 584 510 632 429 L632 488 C592 559 490 607 379 607 C195 607 73 465 73 298 C73 133 195 -10 379 -10 C499 -10 600 37 632 108 L632 168 Z " />
<glyph glyph-name="uni1D05" unicode="&#x1d05;" horiz-adv-x="703" d="M106 0 L318 0 C543 0 648 95 648 298 C648 497 528 597 288 597 L106 597 L106 0 Z M157 556 L290 556 C471 556 595 486 595 298 C595 123 506 41 314 41 L157 41 L157 556 Z " />
<glyph glyph-name="uni1D07" unicode="&#x1d07;" horiz-adv-x="522" d="M106 0 L472 0 L472 43 L157 43 L157 287 L437 287 L437 328 L157 328 L157 554 L457 554 L457 597 L106 597 L106 0 Z " />
<glyph glyph-name="uni1D0A" unicode="&#x1d0a;" horiz-adv-x="428" d="M80 43 C112 4 133 -4 174 -4 C289 -4 343 63 343 175 L343 597 L292 597 L292 175 C292 92 251 39 171 39 C129 39 120 51 80 91 L80 43 Z " />
<glyph glyph-name="uni1D0B" unicode="&#x1d0b;" horiz-adv-x="541" d="M157 0 L157 217 L158 217 L253 327 L474 0 L531 0 L288 368 L485 597 L424 597 L157 281 L157 597 L106 597 L106 0 L157 0 Z " />
<glyph glyph-name="uni1D0D" unicode="&#x1d0d;" horiz-adv-x="770" d="M157 0 L157 549 L372 0 L419 0 L637 554 L637 0 L685 0 L685 597 L605 597 L395 60 L184 597 L106 597 L106 0 L157 0 Z " />
<glyph glyph-name="uni1D0F" unicode="&#x1d0f;" horiz-adv-x="754" d="M78 298 C78 113 202 -10 389 -10 C575 -10 699 113 699 298 C699 474 566 607 389 607 C212 607 78 474 78 298 L78 298 Z M131 298 C131 450 241 564 389 564 C536 564 646 450 646 298 C646 139 544 33 389 33 C234 33 131 139 131 298 L131 298 Z " />
<glyph glyph-name="uni1D18" unicode="&#x1d18;" horiz-adv-x="564" d="M106 0 L157 0 L157 254 L343 254 C467 254 529 309 529 418 C529 537 467 597 343 597 L106 597 L106 0 Z M157 295 L157 556 L341 556 C432 556 478 510 478 418 C478 336 434 295 345 295 L157 295 Z " />
<glyph glyph-name="uni1D1B" unicode="&#x1d1b;" horiz-adv-x="535" d="M525 554 L525 597 L10 597 L10 554 L242 554 L242 0 L293 0 L293 554 L525 554 Z " />
<glyph glyph-name="uni1D1C" unicode="&#x1d1c;" horiz-adv-x="594" d="M99 597 L99 232 C99 71 168 -10 307 -10 C445 -10 514 71 514 232 L514 597 L462 597 L462 242 C462 107 410 39 307 39 C202 39 150 106 150 241 L150 597 L99 597 Z " />
<glyph glyph-name="uni1D20" unicode="&#x1d20;" horiz-adv-x="489" d="M33 597 L233 0 L281 0 L479 597 L423 597 L255 73 L86 597 L33 597 Z " />
<glyph glyph-name="uni1D21" unicode="&#x1d21;" horiz-adv-x="679" d="M171 0 L219 0 L349 517 L479 0 L527 0 L669 597 L613 597 L502 99 L377 597 L319 597 L197 100 L86 597 L33 597 L171 0 Z " />
<glyph glyph-name="uni1D22" unicode="&#x1d22;" horiz-adv-x="595" d="M45 0 L550 0 L550 43 L102 43 L550 554 L550 597 L60 597 L60 554 L493 554 L45 43 L45 0 Z " />
<glyph glyph-name="Wgrave" unicode="&#x1e80;" horiz-adv-x="746" d="M31 750 L185 0 L238 0 L381 644 L524 0 L578 0 L736 750 L673 750 L550 125 L412 750 L348 750 L213 126 L91 750 L31 750 Z M276 980 L361 830 L406 830 L341 980 L276 980 Z " />
<glyph glyph-name="Wacute" unicode="&#x1e82;" horiz-adv-x="746" d="M31 750 L185 0 L238 0 L381 644 L524 0 L578 0 L736 750 L673 750 L550 125 L412 750 L348 750 L213 126 L91 750 L31 750 Z M406 830 L491 980 L426 980 L361 830 L406 830 Z " />
<glyph glyph-name="Wdieresis" unicode="&#x1e84;" horiz-adv-x="746" d="M185 0 L238 0 L381 644 L524 0 L578 0 L736 750 L673 750 L550 125 L412 750 L348 750 L213 126 L91 750 L31 750 L185 0 Z M422 890 L422 830 L482 830 L482 890 L422 890 Z M285 890 L285 830 L345 830 L345 890 L285 890 Z " />
<glyph glyph-name="uni1EBC" unicode="&#x1ebc;" horiz-adv-x="586" d="M105 0 L536 0 L536 48 L161 48 L161 364 L501 364 L501 410 L161 410 L161 702 L521 702 L521 750 L105 750 L105 0 Z M233 830 C233 869 246 894 266 894 C293 894 331 820 363 820 C403 820 430 860 430 923 L393 923 C393 884 380 859 360 859 C331 872 295 936 263 933 C211 930 196 874 196 830 L233 830 Z " />
<glyph glyph-name="Ygrave" unicode="&#x1ef2;" horiz-adv-x="610" d="M289 330 L289 0 L345 0 L345 329 L600 750 L540 750 L316 377 L92 750 L35 750 L289 330 Z M210 980 L295 830 L340 830 L275 980 L210 980 Z " />
<glyph glyph-name="endash" unicode="&#x2013;" horiz-adv-x="410" d="M5 242 L405 242 L405 284 L5 284 L5 242 Z " />
<glyph glyph-name="emdash" unicode="&#x2014;" horiz-adv-x="700" d="M50 242 L650 242 L650 284 L50 284 L50 242 Z " />
<glyph glyph-name="quoteleft" unicode="&#x2018;" horiz-adv-x="160" d="M110 614 L110 674 L83 674 C83 710 91 734 110 734 L110 760 C67 760 50 726 50 674 L50 614 L110 614 Z " />
<glyph glyph-name="quoteright" unicode="&#x2019;" horiz-adv-x="160" d="M80 614 C123 614 140 637 140 700 L140 760 L80 760 L80 700 L107 700 C107 657 99 640 80 640 L80 614 Z " />
<glyph glyph-name="quotedblleft" unicode="&#x201c;" horiz-adv-x="280" d="M230 760 C187 760 170 726 170 674 L170 614 L230 614 L230 674 L203 674 C203 710 211 734 230 734 L230 760 L230 760 Z M113 674 C113 710 121 734 140 734 L140 760 C97 760 80 726 80 674 L80 614 L140 614 L140 674 L113 674 Z " />
<glyph glyph-name="quotedblright" unicode="&#x201d;" horiz-adv-x="280" d="M170 614 C213 614 230 637 230 700 L230 760 L170 760 L170 700 L197 700 C197 657 189 640 170 640 L170 614 Z M80 614 C123 614 140 637 140 700 L140 760 L80 760 L80 700 L107 700 C107 657 99 640 80 640 L80 614 Z " />
<glyph glyph-name="dagger" unicode="&#x2020;" horiz-adv-x="510" d="M60 580 L60 537 L230 537 L230 -50 L280 -50 L280 537 L450 537 L450 580 L280 580 L280 750 L230 750 L230 580 L60 580 Z " />
<glyph glyph-name="daggerdbl" unicode="&#x2021;" horiz-adv-x="510" d="M450 537 L450 580 L280 580 L280 750 L230 750 L230 580 L60 580 L60 537 L230 537 L230 163 L60 163 L60 120 L230 120 L230 -50 L280 -50 L280 120 L450 120 L450 163 L280 163 L280 537 L450 537 Z " />
<glyph glyph-name="bullet" unicode="&#x2022;" horiz-adv-x="160" d="M50 230 L110 230 L110 290 L50 290 L50 230 Z " />
<glyph glyph-name="ellipsis" unicode="&#x2026;" horiz-adv-x="430" d="M50 0 L110 0 L110 60 L50 60 L50 0 Z M185 0 L245 0 L245 60 L185 60 L185 0 Z M320 0 L380 0 L380 60 L320 60 L320 0 Z " />
<glyph glyph-name="perthousand" unicode="&#x2030;" horiz-adv-x="1062" d="M149 0 L167 0 L632 750 L614 750 L149 0 Z M521 144 C521 52 564 -10 632 -10 C701 -10 747 52 747 144 C747 232 701 290 632 290 C564 290 521 232 521 144 L521 144 Z M549 144 C549 216 581 263 632 263 C684 263 719 216 719 144 C719 68 684 17 632 17 C581 17 549 68 549 144 L549 144 Z M35 610 C35 519 83 460 158 460 C231 460 280 519 280 610 C280 701 231 760 158 760 C83 760 35 701 35 610 L35 610 Z M64 610 C64 685 102 733 158 733 C214 733 252 685 252 610 C252 535 214 487 158 487 C102 487 64 535 64 610 L64 610 Z M787 144 C787 52 835 -10 910 -10 C983 -10 1032 52 1032 144 C1032 232 983 290 910 290 C835 290 787 232 787 144 L787 144 Z M816 144 C816 216 854 263 910 263 C966 263 1004 216 1004 144 C1004 68 966 17 910 17 C854 17 816 68 816 144 L816 144 Z " />
<glyph glyph-name="guilsinglleft" unicode="&#x2039;" horiz-adv-x="265" d="M204 470 L64 260 L204 50 L248 50 L108 260 L248 470 L204 470 Z " />
<glyph glyph-name="guilsinglright" unicode="&#x203a;" horiz-adv-x="265" d="M92 470 L232 260 L92 50 L136 50 L276 260 L136 470 L92 470 Z " />
<glyph glyph-name="fraction" unicode="&#x2044;" horiz-adv-x="516" d="M21 0 L39 0 L504 750 L486 750 L21 0 Z " />
<glyph glyph-name="Euro" unicode="&#x20ac;" horiz-adv-x="630" d="M17 317 L74 317 C93 117 206 -10 371 -10 C481 -10 575 25 610 116 L610 183 C570 77 477 38 371 38 C241 38 150 149 134 317 L415 317 L419 345 L132 345 C131 356 131 364 131 375 C131 386 131 394 132 405 L419 405 L423 433 L134 433 C150 601 241 712 371 712 C465 712 560 675 610 569 L610 633 C567 724 470 760 371 760 C206 760 93 633 74 433 L25 433 L21 405 L72 405 C71 394 71 386 71 375 C71 364 71 356 72 345 L21 345 L17 317 Z " />
<glyph glyph-name="minus" unicode="&#x2212;" horiz-adv-x="615" d="M50 248 L565 248 L565 278 L50 278 L50 248 Z " />
<glyph glyph-name="uni2215" unicode="&#x2215;" horiz-adv-x="414" d="M0 0 L17 0 L414 750 L397 750 L0 0 Z " />
<glyph glyph-name="uni2219" unicode="&#x2219;" horiz-adv-x="160" d="M50 230 L110 230 L110 290 L50 290 L50 230 Z " />
<glyph glyph-name="uniA730" unicode="&#xa730;" horiz-adv-x="487" d="M106 0 L157 0 L157 287 L427 287 L427 328 L157 328 L157 554 L457 554 L457 597 L106 597 L106 0 Z " />
<glyph glyph-name="uniA731" unicode="&#xa731;" horiz-adv-x="456" d="M26 113 C74 40 138 -10 219 -10 C352 -10 421 60 421 167 C421 251 356 311 228 332 C148 345 109 385 109 442 C109 514 155 560 223 560 C250 560 303 520 374 443 L374 499 C310 571 255 607 223 607 C123 607 57 540 57 436 C57 355 110 298 214 282 C318 263 370 221 370 165 C370 88 319 36 219 36 C143 36 71 86 26 182 L26 113 Z " />
<glyph glyph-name="uniF078" unicode="&#xf078;" horiz-adv-x="528" d="M456 597 L289 359 L141 597 L88 597 L261 319 L37 0 L97 0 L289 274 L460 0 L513 0 L317 314 L516 597 L456 597 Z " />
</font>
</svg>
