<svg width="45" height="44" viewBox="0 0 45 44" fill="none" xmlns="http://www.w3.org/2000/svg">
<circle cx="22" cy="22" r="21.5" stroke="#413042"/>
<path d="M9.864 15.502L6.658 17.322V14.97L10.9 12.52H12.272V31H9.864V15.502ZM22.0766 14.298C21.3019 14.298 20.6253 14.4567 20.0466 14.774C19.4773 15.082 18.9966 15.446 18.6046 15.866C18.2219 16.2767 17.9279 16.6547 17.7226 17C17.5266 17.336 17.4193 17.5227 17.4006 17.56L15.2866 16.636C15.3053 16.552 15.3939 16.3513 15.5526 16.034C15.7113 15.7073 15.9586 15.3293 16.2946 14.9C16.6306 14.4707 17.0599 14.0507 17.5826 13.64C18.1053 13.22 18.7353 12.8747 19.4726 12.604C20.2193 12.324 21.0873 12.184 22.0766 12.184C23.0846 12.184 23.9573 12.324 24.6946 12.604C25.4319 12.884 26.0386 13.276 26.5146 13.78C26.9906 14.284 27.3453 14.8813 27.5786 15.572C27.8119 16.2627 27.9286 17.014 27.9286 17.826C27.9286 18.61 27.7419 19.4127 27.3686 20.234C26.9953 21.0553 26.5099 21.8627 25.9126 22.656C25.3153 23.44 24.6713 24.182 23.9806 24.882C23.2993 25.5727 22.6366 26.198 21.9926 26.758C21.3579 27.318 20.8073 27.78 20.3406 28.144C19.8833 28.4987 19.5846 28.732 19.4446 28.844H27.7746V31H15.7066V29.026C15.9959 28.802 16.4299 28.4613 17.0086 28.004C17.5966 27.5373 18.2593 26.9913 18.9966 26.366C19.7339 25.7407 20.4806 25.064 21.2366 24.336C21.9926 23.608 22.6926 22.866 23.3366 22.11C23.9806 21.3447 24.4986 20.598 24.8906 19.87C25.2919 19.1327 25.4926 18.442 25.4926 17.798C25.4926 16.51 25.1939 15.6047 24.5966 15.082C24.0086 14.5593 23.1686 14.298 22.0766 14.298ZM38.1324 22.726V27.458H36.0884V22.726H31.3424V20.696H36.0884V15.964H38.1324V20.696H42.8364V22.726H38.1324Z" fill="#413042"/>
</svg>
