<svg width="31" height="31" viewBox="0 0 31 31" fill="none" xmlns="http://www.w3.org/2000/svg">
<path d="M25.5 2H6.5C5.57255 2.00286 4.68385 2.40325 4.02804 3.11371C3.37223 3.82417 3.00264 4.78693 3 5.79167V18.7917C3.00264 19.7964 3.37223 20.7592 4.02804 21.4696C4.68385 22.1801 5.57255 22.5805 6.5 22.5833H9V28L14.8575 22.7093C14.9474 22.6279 15.0609 22.5833 15.1781 22.5833H25.5C26.4274 22.5805 27.3162 22.1801 27.972 21.4696C28.6278 20.7592 28.9974 19.7964 29 18.7917V5.79167C28.9974 4.78693 28.6278 3.82417 27.972 3.11371C27.3162 2.40325 26.4274 2.00286 25.5 2Z" stroke="url(#paint0_linear_467_304)" stroke-width="2" stroke-linejoin="round"/>
<defs>
<linearGradient id="paint0_linear_467_304" x1="3" y1="15" x2="29" y2="15" gradientUnits="userSpaceOnUse">
<stop stop-color="#A755AE"/>
<stop offset="1" stop-color="#AE4666"/>
</linearGradient>
</defs>
</svg>
