<svg width="28" height="31" viewBox="0 0 28 31" fill="none" xmlns="http://www.w3.org/2000/svg">
<path d="M23.8966 23C24.6779 21.0357 26 17.4423 26 15.381C26 8.54286 19.9105 3 13.5 3C7.08954 3 1 8.54286 1 15.381C1 17.4423 2.38221 21.1548 3.10337 23" stroke="url(#paint0_linear_463_220)" stroke-width="2" stroke-linecap="round" stroke-linejoin="round"/>
<path d="M22.6767 15.1304L23.5277 15.6202C25.4069 16.7039 25.4983 20.0535 23.7378 23.1019C21.9773 26.1503 19.0214 27.7434 17.1421 26.6604L16.2911 26.1706C16.0652 26.0381 15.901 25.8236 15.8339 25.5733C15.7667 25.323 15.8018 25.0567 15.9318 24.8315L21.3333 15.4897C21.3969 15.3787 21.4824 15.2812 21.5846 15.2029C21.6868 15.1247 21.8038 15.0671 21.9287 15.0337C22.0537 15.0003 22.1842 14.9916 22.3125 15.0082C22.4409 15.0248 22.5647 15.0663 22.6767 15.1304ZM4.32432 15.1304L3.47328 15.6202C1.59403 16.7032 1.50016 20.0529 3.26316 23.1013C5.02616 26.1497 7.97962 27.7428 9.85886 26.6597L10.7099 26.1699C10.9358 26.0374 11.0999 25.823 11.1671 25.5727C11.2343 25.3223 11.1991 25.056 11.0692 24.8309L5.6677 15.4897C5.60402 15.3787 5.51859 15.2812 5.41638 15.2029C5.31416 15.1247 5.19718 15.0671 5.07223 15.0337C4.94727 15.0003 4.81682 14.9916 4.68843 15.0082C4.56005 15.0248 4.43629 15.0663 4.32432 15.1304Z" stroke="url(#paint1_linear_463_220)" stroke-width="2" stroke-miterlimit="10"/>
<defs>
<linearGradient id="paint0_linear_463_220" x1="26" y1="13" x2="1" y2="13" gradientUnits="userSpaceOnUse">
<stop stop-color="#A755AE"/>
<stop offset="1" stop-color="#AE4666"/>
</linearGradient>
<linearGradient id="paint1_linear_463_220" x1="25" y1="21" x2="2" y2="21" gradientUnits="userSpaceOnUse">
<stop stop-color="#A755AE"/>
<stop offset="1" stop-color="#AE4666"/>
</linearGradient>
</defs>
</svg>
