<svg xmlns="http://www.w3.org/2000/svg" xmlns:xlink="http://www.w3.org/1999/xlink" viewBox="0 0 64 64" id="Trends"><defs><path id="a" d="M.06 64V.04H64V64z" fill="#000000" class="color000000 svgShape"></path></defs><g fill="none" fill-rule="evenodd"><path fill="#a755ae" d="M36.564 26.152l-7.606 14.012-9.733-13.779a1.5 1.5 0 00-2.057-.383l-9 6a1.5 1.5 0 101.664 2.496l7.785-5.19L27.9 43.865a1.499 1.499 0 002.543-.149l8.487-15.633a5.396 5.396 0 01-2.366-1.931M41 19.75a3.379 3.379 0 00-3.375 3.375A3.379 3.379 0 0041 26.5a3.379 3.379 0 003.375-3.375A3.379 3.379 0 0041 19.75" class="colorfffffe svgShape"></path><mask id="b" fill="#fff"><use xlink:href="#a"></use></mask><path fill="#a755ae" d="M44.05 27.542l8.762 11.373a1.5 1.5 0 0 0 2.376-1.83L45.979 25.13a5.4 5.4 0 0 1-1.929 2.412" mask="url(#b)" class="colorfffffe svgShape"></path><path fill="#ae4666" d="M54.916 39.189a1.501 1.501 0 0 1-2.104-.274L44.05 27.542a5.4 5.4 0 0 0 1.929-2.412l9.209 11.955a1.5 1.5 0 0 1-.272 2.104zM41 26.5a3.379 3.379 0 0 1-3.375-3.375A3.379 3.379 0 0 1 41 19.75a3.379 3.379 0 0 1 3.375 3.375A3.379 3.379 0 0 1 41 26.5zM30.443 43.716a1.498 1.498 0 0 1-2.543.149L17.617 29.308l-7.785 5.19a1.5 1.5 0 1 1-1.664-2.496l9-6a1.5 1.5 0 0 1 2.057.383l9.733 13.779 7.606-14.012a5.396 5.396 0 0 0 2.366 1.931l-8.487 15.633zM32 0C14.327 0 0 14.327 0 32c0 17.673 14.327 32 32 32 17.673 0 32-14.327 32-32C64 14.327 49.673 0 32 0z" mask="url(#b)" class="color4c5665 svgShape"></path></g></svg>