<svg width="31" height="30" viewBox="0 0 31 30" fill="none" xmlns="http://www.w3.org/2000/svg">
<path d="M27.9612 3.12511C27.9509 3.07575 27.9267 3.03033 27.8913 2.99421C27.8559 2.95809 27.8108 2.93276 27.7614 2.92121C24.4689 2.12125 16.863 4.97163 12.7379 9.06645C12.0027 9.79077 11.3324 10.5773 10.7344 11.417C9.46294 11.3027 8.19146 11.399 7.10888 11.8681C4.05187 13.2034 3.16243 16.6907 2.91419 18.1878C2.90074 18.2698 2.90649 18.3538 2.93098 18.4333C2.95548 18.5127 2.99806 18.5855 3.05544 18.646C3.11282 18.7065 3.18344 18.7531 3.26185 18.7821C3.34025 18.8111 3.42432 18.8218 3.50755 18.8133L8.41609 18.278C8.41948 18.6458 8.44171 19.0131 8.48269 19.3787C8.50831 19.6313 8.62178 19.8672 8.80359 20.0457L10.7042 21.9337C10.884 22.1145 11.1217 22.2272 11.3762 22.2525C11.742 22.293 12.1096 22.3151 12.4776 22.3187L11.9393 27.1906C11.9309 27.2732 11.9417 27.3566 11.9709 27.4343C12.0001 27.5121 12.047 27.5821 12.1078 27.639C12.1686 27.6959 12.2417 27.7382 12.3216 27.7626C12.4015 27.7869 12.4859 27.7927 12.5684 27.7794C14.076 27.5389 17.5938 26.6553 18.9301 23.6191C19.4023 22.5424 19.4992 21.286 19.3902 20.0289C20.238 19.4354 21.032 18.7695 21.763 18.0386C25.9032 13.9486 28.7544 6.55891 27.9612 3.12511ZM18.083 12.7402C17.7214 12.3811 17.4751 11.9235 17.3753 11.4252C17.2755 10.927 17.3266 10.4106 17.5223 9.94127C17.718 9.47195 18.0493 9.0708 18.4745 8.78857C18.8997 8.50633 19.3996 8.35569 19.9109 8.35569C20.4223 8.35569 20.9221 8.50633 21.3473 8.78857C21.7725 9.0708 22.1039 9.47195 22.2995 9.94127C22.4952 10.4106 22.5463 10.927 22.4465 11.4252C22.3467 11.9235 22.1004 12.3811 21.7388 12.7402C21.499 12.979 21.214 13.1685 20.9004 13.2977C20.5867 13.427 20.2505 13.4935 19.9109 13.4935C19.5713 13.4935 19.2351 13.427 18.9214 13.2977C18.6078 13.1685 18.3229 12.979 18.083 12.7402Z" stroke="url(#paint0_linear_467_306)" stroke-width="1.73507" stroke-linecap="round" stroke-linejoin="round"/>
<path d="M6.63836 20.3582C6.03478 20.4289 5.47325 20.6903 5.04295 21.1008C3.97611 22.1233 3.875 25.9104 3.875 25.9104C3.875 25.9104 7.84203 25.8138 8.90947 24.7936C9.34092 24.3832 9.615 23.8459 9.6875 23.2685" stroke="url(#paint1_linear_467_306)" stroke-width="1.73507" stroke-linecap="round" stroke-linejoin="round"/>
<defs>
<linearGradient id="paint0_linear_467_306" x1="2.9071" y1="15.2864" x2="28.0939" y2="15.2864" gradientUnits="userSpaceOnUse">
<stop stop-color="#A755AE"/>
<stop offset="1" stop-color="#AE4666"/>
</linearGradient>
<linearGradient id="paint1_linear_467_306" x1="3.875" y1="23.1343" x2="9.6875" y2="23.1343" gradientUnits="userSpaceOnUse">
<stop stop-color="#A755AE"/>
<stop offset="1" stop-color="#AE4666"/>
</linearGradient>
</defs>
</svg>
