<svg width="31" height="30" viewBox="0 0 31 30" fill="none" xmlns="http://www.w3.org/2000/svg">
<path d="M27.9612 3.11209C27.9509 3.06463 27.9267 3.02096 27.8913 2.98622C27.8559 2.95149 27.8108 2.92714 27.7614 2.91603C24.4689 2.14681 16.863 4.88765 12.7379 8.82511C12.0027 9.5216 11.3324 10.2779 10.7344 11.0853C9.46294 10.9754 8.19146 11.068 7.10888 11.5191C4.05187 12.8031 3.16243 16.1564 2.91419 17.5959C2.90074 17.6748 2.90649 17.7556 2.93098 17.832C2.95548 17.9084 2.99806 17.9784 3.05544 18.0366C3.11282 18.0947 3.18344 18.1395 3.26185 18.1674C3.34025 18.1953 3.42432 18.2056 3.50755 18.1974L8.41609 17.6827C8.41948 18.0363 8.44171 18.3896 8.48269 18.7411C8.50831 18.984 8.62178 19.2108 8.80359 19.3825L10.7042 21.1979C10.884 21.3717 11.1217 21.4801 11.3762 21.5045C11.742 21.5434 12.1096 21.5647 12.4776 21.5681L11.9393 26.2528C11.9309 26.3322 11.9417 26.4124 11.9709 26.4871C12.0001 26.5619 12.047 26.6292 12.1078 26.684C12.1686 26.7387 12.2417 26.7793 12.3216 26.8028C12.4015 26.8262 12.4859 26.8317 12.5684 26.819C14.076 26.5877 17.5938 25.738 18.9301 22.8185C19.4023 21.7832 19.4992 20.575 19.3902 19.3663C20.238 18.7956 21.032 18.1552 21.763 17.4525C25.9032 13.5196 28.7544 6.41394 27.9612 3.11209ZM18.083 12.3577C17.7214 12.0124 17.4751 11.5723 17.3753 11.0933C17.2755 10.6142 17.3266 10.1176 17.5223 9.66632C17.718 9.21503 18.0493 8.8293 18.4745 8.55791C18.8997 8.28652 19.3996 8.14167 19.9109 8.14167C20.4223 8.14167 20.9221 8.28652 21.3473 8.55791C21.7725 8.8293 22.1039 9.21503 22.2995 9.66632C22.4952 10.1176 22.5463 10.6142 22.4465 11.0933C22.3467 11.5723 22.1004 12.0124 21.7388 12.3577C21.499 12.5873 21.214 12.7695 20.9004 12.8938C20.5867 13.0181 20.2505 13.0821 19.9109 13.0821C19.5713 13.0821 19.2351 13.0181 18.9214 12.8938C18.6078 12.7695 18.3229 12.5873 18.083 12.3577Z" stroke="#413042" stroke-width="1.73507" stroke-linecap="round" stroke-linejoin="round"/>
<path d="M6.63836 20.3582C6.03478 20.4289 5.47325 20.6903 5.04295 21.1008C3.97611 22.1233 3.875 25.9104 3.875 25.9104C3.875 25.9104 7.84203 25.8138 8.90947 24.7936C9.34092 24.3832 9.615 23.8459 9.6875 23.2685" stroke="#413042" stroke-width="1.73507" stroke-linecap="round" stroke-linejoin="round"/>
</svg>
